<?xml version="1.0" standalone="no"?>
<!DOCTYPE svg PUBLIC "-//W3C//DTD SVG 20010904//EN"
 "http://www.w3.org/TR/2001/REC-SVG-20010904/DTD/svg10.dtd">
<svg version="1.0" xmlns="http://www.w3.org/2000/svg"
 width="900.000000pt" height="512.000000pt" viewBox="0 0 900.000000 512.000000"
 preserveAspectRatio="xMidYMid meet">

<g transform="translate(0.000000,512.000000) scale(0.100000,-0.100000)"
fill="#000000" stroke="none">
<path d="M4320 5109 c-349 -39 -672 -166 -946 -370 -164 -123 -390 -372 -466
-515 -27 -51 -19 -89 24 -113 47 -27 75 -7 155 109 140 204 354 404 560 524 8
4 20 -8 33 -33 28 -57 83 -108 129 -122 l38 -11 -18 -49 c-47 -124 7 -265 128
-336 59 -34 169 -43 227 -19 51 21 53 21 59 -12 8 -37 80 -118 131 -145 58
-31 193 -31 251 0 52 28 110 88 130 136 8 20 17 37 19 37 2 0 20 -7 39 -15 56
-23 153 -19 212 9 95 44 166 154 165 255 -1 20 -9 58 -18 86 l-17 49 58 29
c54 27 101 78 120 130 6 15 13 13 64 -20 184 -116 377 -297 496 -463 82 -116
196 -342 236 -470 89 -283 106 -603 45 -880 -21 -97 -76 -270 -84 -265 -4 3
-10 18 -13 35 -4 16 -25 50 -49 76 -40 43 -42 48 -43 112 -3 135 -97 232 -223
232 -26 0 -35 6 -51 38 -25 48 -66 87 -113 106 -42 18 -143 21 -184 6 -22 -9
-36 -6 -77 15 -37 18 -67 25 -108 25 -66 0 -97 -11 -154 -55 -37 -29 -43 -30
-120 -27 -68 3 -87 0 -125 -20 -59 -30 -97 -87 -112 -165 -8 -47 -16 -64 -30
-69 -11 -3 -35 -20 -54 -36 -84 -74 -103 -190 -47 -289 29 -51 30 -57 16 -82
-23 -45 -19 -141 9 -195 27 -52 95 -110 139 -119 20 -4 29 -12 29 -25 0 -27
33 -89 66 -122 42 -42 101 -66 164 -66 51 0 57 -3 84 -36 61 -77 191 -106 285
-63 l45 20 47 -21 c60 -25 140 -26 195 -1 49 22 111 92 124 140 8 31 16 38 52
49 111 35 184 153 159 261 -8 35 -6 41 22 67 16 16 38 46 47 67 l18 39 16 -48
c50 -152 37 -334 -34 -474 -91 -180 -210 -277 -429 -351 -62 -21 -132 -50
-156 -64 -95 -55 -175 -181 -194 -305 -14 -90 -38 -110 -132 -110 l-69 0 0 39
c0 31 -6 44 -26 60 -30 24 -43 26 -77 10 -28 -13 -47 -48 -47 -84 0 -24 -3
-25 -54 -25 l-55 0 -3 42 c-8 103 -128 101 -144 -3 l-7 -39 -47 0 -47 0 -7 39
c-6 42 -44 81 -76 81 -32 0 -70 -39 -76 -81 l-7 -39 -48 0 c-45 0 -49 2 -49
25 0 36 -19 71 -47 84 -34 16 -47 14 -77 -10 -20 -16 -26 -29 -26 -60 l0 -39
-55 0 c-52 0 -55 1 -55 25 0 36 -19 71 -47 84 -34 16 -47 14 -77 -10 -20 -16
-26 -29 -26 -61 l0 -40 -75 4 c-95 4 -111 19 -126 109 -19 120 -99 241 -202
306 -21 13 -87 42 -147 63 -134 48 -189 76 -260 133 -101 80 -181 206 -216
339 -28 109 -20 273 18 371 l11 28 17 -38 c10 -21 31 -51 48 -66 27 -26 29
-32 21 -65 -12 -52 6 -132 41 -181 28 -39 111 -91 144 -91 9 0 19 -16 25 -38
14 -50 75 -120 125 -143 55 -25 139 -24 195 2 l45 20 47 -21 c98 -41 225 -13
284 64 26 34 31 36 84 36 80 0 150 36 191 98 17 26 34 59 37 75 4 20 16 32 47
46 94 42 147 119 147 214 0 30 -6 70 -14 90 -14 33 -14 37 9 70 47 70 52 160
13 238 -19 39 -76 94 -107 103 -14 5 -22 22 -30 69 -15 78 -53 135 -112 165
-38 20 -57 23 -125 20 -77 -3 -83 -2 -120 27 -57 44 -88 55 -154 55 -41 0 -71
-7 -108 -25 -41 -21 -55 -24 -77 -15 -34 13 -120 13 -166 0 -47 -13 -106 -63
-130 -111 -17 -33 -25 -39 -52 -39 -81 0 -162 -50 -199 -123 -15 -27 -22 -63
-23 -108 -2 -65 -4 -70 -44 -113 -24 -26 -45 -60 -49 -76 -3 -17 -9 -32 -13
-35 -8 -5 -63 167 -84 265 -43 195 -46 489 -7 683 22 105 18 137 -18 156 -30
17 -69 13 -90 -8 -38 -38 -71 -257 -71 -477 0 -212 30 -398 95 -595 l26 -78
-22 -88 c-29 -109 -31 -282 -6 -385 37 -149 108 -276 215 -382 l60 -59 5 -306
c3 -239 8 -322 22 -381 111 -493 473 -851 965 -957 74 -16 136 -18 500 -18
457 0 488 3 668 66 152 54 303 142 397 233 60 57 59 102 -3 135 -32 17 -54 8
-151 -67 -70 -53 -248 -152 -275 -152 -3 0 -6 29 -6 65 0 82 -16 121 -75 184
-60 64 -113 85 -197 79 -35 -3 -71 -8 -80 -12 -13 -6 -19 -1 -23 21 -19 88
-86 168 -161 194 -52 18 -150 16 -195 -4 -77 -32 -135 -105 -154 -190 -4 -23
-10 -27 -23 -21 -9 4 -47 9 -83 12 -154 10 -274 -104 -272 -261 0 -79 5 -78
-112 -19 -283 141 -486 397 -566 714 -18 70 -22 123 -26 337 -5 246 -5 254 13
246 11 -4 45 -17 77 -29 l57 -21 0 -132 c0 -72 5 -167 11 -210 20 -155 114
-294 238 -356 104 -52 151 -31 151 67 0 71 21 123 55 136 15 6 53 10 86 10
l59 0 0 -58 c0 -48 4 -62 23 -80 33 -31 80 -29 106 4 15 20 21 41 21 80 l0 54
55 0 55 0 0 -60 c0 -69 21 -100 69 -100 51 0 74 29 79 99 l4 61 49 0 49 0 0
-40 c0 -58 23 -108 54 -116 65 -16 106 28 106 116 l0 40 49 0 49 0 4 -61 c5
-70 28 -99 79 -99 48 0 69 31 69 100 l0 60 55 0 55 0 0 -54 c0 -69 26 -106 76
-106 53 0 74 28 74 100 l0 60 59 0 c33 0 71 -4 86 -10 34 -13 55 -65 55 -138
0 -44 5 -63 18 -75 68 -62 254 61 327 215 42 88 54 169 55 358 l0 135 76 27
76 27 -4 -252 c-5 -231 -7 -260 -31 -350 -27 -102 -99 -260 -163 -360 -32 -49
-36 -62 -28 -84 13 -38 57 -67 88 -59 48 12 168 212 220 368 54 160 58 194 63
524 l5 311 50 49 c105 101 182 231 219 370 31 115 31 288 0 407 l-22 88 30 92
c65 198 91 368 91 596 0 824 -384 1413 -1107 1700 -304 120 -649 172 -933 140z
m322 -149 c34 0 39 -4 54 -37 39 -92 -7 -214 -98 -261 -170 -87 -358 75 -295
253 14 40 14 40 78 46 35 4 100 5 144 3 44 -2 97 -4 117 -4z m-497 -124 c0
-88 -1 -93 -18 -84 -13 7 -38 4 -87 -11 -86 -27 -145 -27 -188 -1 -33 20 -59
67 -45 80 19 17 285 106 328 109 6 1 10 -37 10 -93z m795 74 c73 -20 260 -89
260 -95 0 -22 -26 -59 -52 -75 -41 -25 -94 -25 -182 -1 -43 12 -77 16 -90 11
-20 -7 -21 -5 -21 86 0 52 2 94 5 94 3 0 39 -9 80 -20z m-745 -259 c7 -23 111
-121 128 -121 7 0 1 -6 -13 -13 -24 -12 -38 -30 -90 -118 -31 -51 -84 -89
-125 -89 -77 0 -144 76 -130 148 8 45 61 98 137 139 29 15 57 38 63 51 12 27
22 28 30 3z m640 -3 c6 -12 37 -37 70 -55 116 -64 156 -136 118 -209 -21 -42
-73 -74 -118 -74 -41 0 -94 38 -125 89 -52 88 -66 106 -90 118 -14 7 -20 13
-13 13 17 0 121 98 128 121 8 25 18 24 30 -3z m-340 -163 c22 0 57 3 78 7 33
6 37 5 27 -7 -13 -16 -12 -26 14 -143 13 -56 14 -82 6 -112 -25 -92 -145 -120
-210 -50 -44 47 -46 102 -9 233 11 38 11 52 1 67 -11 18 -10 19 21 12 17 -4
50 -7 72 -7z m-665 -1380 c13 -14 22 -26 19 -28 -2 -2 -38 2 -79 8 l-75 10 25
18 c36 25 82 22 110 -8z m1450 8 c25 -18 25 -18 -50 -28 -41 -6 -77 -9 -80 -7
-3 2 8 15 23 28 33 28 73 31 107 7z m-1744 -17 c18 -14 18 -15 -11 -21 -17 -4
-45 -11 -64 -16 -45 -11 -49 -6 -18 25 29 29 63 33 93 12z m2021 -12 c30 -30
24 -41 -14 -26 -15 6 -43 14 -62 18 -33 6 -34 7 -16 20 29 21 63 17 92 -12z
m-1445 -65 c11 -15 18 -33 16 -41 -2 -12 -16 -8 -66 20 -46 25 -60 37 -50 43
26 18 80 5 100 -22z m877 22 c11 -7 3 -15 -30 -31 -24 -13 -54 -30 -66 -38
-21 -13 -23 -13 -23 6 0 34 38 72 73 72 18 0 38 -4 46 -9z m-1745 -113 c-5 -7
-23 -32 -40 -55 -23 -30 -34 -38 -38 -27 -8 21 9 60 36 78 27 19 52 21 42 4z
m616 -13 c116 -30 211 -91 246 -157 8 -15 14 -54 14 -86 0 -50 -7 -73 -42
-143 -58 -117 -153 -211 -273 -270 -86 -43 -91 -44 -184 -44 -89 0 -102 3
-163 33 -192 94 -261 323 -152 507 51 88 151 154 264 174 73 13 211 6 290 -14z
m1563 14 c267 -41 405 -316 271 -544 -99 -170 -323 -222 -522 -121 -180 91
-328 322 -292 456 40 148 296 247 543 209z m384 -11 c25 -28 34 -53 27 -73 -4
-10 -15 -2 -38 28 -48 63 -50 67 -28 67 10 0 28 -10 39 -22z m-1072 -160 c-10
-59 -21 -77 -27 -45 -5 25 15 87 27 87 4 0 4 -19 0 -42z m-449 8 c3 -13 4 -37
2 -52 -3 -24 -5 -19 -14 24 -11 50 0 76 12 28z m-1180 -137 c-3 -17 -6 -50 -6
-73 l-1 -41 -19 24 c-24 28 -26 68 -4 99 22 32 38 28 30 -9z m2818 9 c22 -31
20 -71 -4 -99 l-19 -24 -1 50 c0 28 -3 60 -6 73 -8 29 10 29 30 0z m-1670
-154 c21 -56 -11 -114 -63 -114 l-30 0 35 57 c19 31 34 60 34 65 0 14 18 9 24
-8z m516 8 c0 -5 15 -34 34 -65 l35 -57 -30 0 c-52 0 -84 58 -63 114 6 17 24
22 24 8z m-1581 -204 c24 -36 28 -48 16 -48 -26 0 -55 38 -55 72 0 17 2 29 3
27 2 -2 18 -25 36 -51z m2661 24 c0 -34 -17 -58 -48 -67 -22 -6 -22 -4 10 44
18 28 34 51 36 51 1 0 2 -13 2 -28z m-1780 -77 c0 -35 -42 -75 -78 -75 -44 0
-45 10 -4 40 20 15 43 34 51 43 19 24 31 21 31 -8z m917 -15 c25 -22 50 -40
55 -40 5 0 6 -4 3 -10 -12 -19 -65 -11 -90 15 -22 21 -35 75 -19 75 3 0 26
-18 51 -40z m-1513 -144 c29 -10 0 -36 -41 -36 -39 0 -83 37 -83 69 0 19 1 19
53 -3 28 -13 60 -26 71 -30z m2172 27 c-9 -38 -42 -63 -81 -63 -40 0 -70 28
-38 36 11 3 42 16 69 29 27 13 51 24 53 24 2 1 0 -11 -3 -26z m-1876 -43 c-26
-20 -56 -25 -86 -13 -13 5 -1 11 42 23 32 9 61 15 64 12 3 -2 -6 -12 -20 -22z
m1545 -2 c17 -4 16 -6 -9 -13 -19 -5 -39 -3 -62 8 -48 23 -42 38 9 22 23 -7
51 -15 62 -17z m199 -935 c-9 -29 -31 -69 -48 -88 l-31 -36 -28 55 -29 55 21
30 c12 17 27 56 32 88 19 102 28 129 61 174 l33 44 3 -134 c2 -104 -1 -147
-14 -188z m-1985 233 c11 -22 27 -74 36 -115 8 -41 24 -89 35 -106 l20 -32
-28 -52 -28 -51 -21 22 c-11 13 -31 43 -44 68 -21 40 -24 61 -27 195 l-4 150
21 -19 c11 -10 29 -37 40 -60z m1033 -758 c53 -27 59 -115 16 -221 l-23 -57
-55 0 -55 0 -23 58 c-34 82 -38 149 -13 189 30 47 96 61 153 31z m-384 -211
c32 -18 105 -91 121 -120 12 -22 10 -30 -14 -71 -26 -45 -29 -46 -64 -41 -99
16 -133 29 -166 60 -29 27 -35 39 -35 75 0 81 88 135 158 97z m768 -21 c27
-27 34 -42 34 -74 0 -76 -59 -117 -197 -136 -40 -6 -42 -5 -68 40 -31 53 -27
68 33 131 81 82 142 95 198 39z m-401 -206 c4 -6 -13 -10 -45 -10 -32 0 -49 4
-45 10 3 6 24 10 45 10 21 0 42 -4 45 -10z"/>
<path d="M5280 4540 c-20 -20 -26 -54 -14 -84 3 -9 29 -32 58 -53 28 -20 84
-66 124 -102 55 -48 81 -64 103 -64 53 0 92 60 68 106 -15 28 -91 96 -182 165
-79 58 -122 67 -157 32z"/>
<path d="M5641 4194 c-27 -34 -27 -64 1 -100 30 -39 38 -44 76 -44 72 0 95 73
41 135 -40 45 -87 49 -118 9z"/>
<path d="M3624 4070 c-157 -31 -277 -170 -277 -320 0 -213 207 -354 389 -265
60 29 114 92 114 130 0 32 -30 64 -66 71 -26 5 -38 -1 -78 -35 -56 -48 -106
-55 -150 -20 -82 64 -74 184 16 252 120 92 302 15 348 -148 17 -59 8 -150 -19
-203 -36 -71 -24 -118 37 -136 35 -11 60 2 87 48 37 64 55 132 55 217 0 200
-138 374 -324 408 -66 12 -74 12 -132 1z"/>
<path d="M5230 4067 c-131 -29 -243 -136 -291 -275 -58 -168 24 -427 125 -396
59 18 71 65 35 137 -79 154 13 357 174 387 112 21 227 -64 227 -168 0 -80 -52
-142 -121 -142 -30 0 -48 8 -84 40 -54 46 -85 51 -120 15 -30 -29 -31 -57 -5
-100 40 -65 123 -107 212 -106 151 0 271 131 270 291 0 110 -51 201 -145 263
-87 58 -181 76 -277 54z"/>
<path d="M2833 4040 c-27 -11 -46 -41 -67 -103 -19 -58 -7 -96 35 -111 49 -17
78 0 106 61 14 31 26 70 25 86 -1 50 -53 85 -99 67z"/>
<path d="M4433 3809 c-81 -52 -162 -254 -163 -405 0 -184 209 -291 364 -184
86 59 113 156 82 300 -52 240 -170 361 -283 289z m95 -196 c26 -60 52 -162 52
-201 0 -16 -9 -41 -21 -56 -45 -57 -139 -19 -139 56 0 61 61 248 80 248 4 0
17 -21 28 -47z"/>
<path d="M4432 2253 c-114 -56 -235 -320 -249 -545 -7 -112 10 -161 74 -218
59 -51 131 -73 243 -73 111 0 188 23 242 71 86 78 99 176 49 375 -77 305 -219
459 -359 390z m102 -166 c83 -108 162 -400 126 -466 -18 -34 -73 -53 -160 -53
-85 0 -142 18 -159 50 -37 69 40 358 125 469 14 18 29 33 34 33 5 0 20 -15 34
-33z"/>
</g>
</svg>
