<?xml version="1.0" standalone="no"?>
<!DOCTYPE svg PUBLIC "-//W3C//DTD SVG 20010904//EN"
 "http://www.w3.org/TR/2001/REC-SVG-20010904/DTD/svg10.dtd">
<svg version="1.0" xmlns="http://www.w3.org/2000/svg"
 width="626.000000pt" height="626.000000pt" viewBox="0 0 626.000000 626.000000"
 preserveAspectRatio="xMidYMid meet">

<g transform="translate(0.000000,626.000000) scale(0.100000,-0.100000)"
fill="#000000" stroke="none">
<path d="M4571 5272 c0 -13 -5 -21 -9 -18 -5 3 -7 -18 -4 -47 l5 -52 -28 25
c-16 14 -25 19 -21 12 6 -10 1 -11 -21 -7 -21 5 -24 4 -13 -4 8 -6 24 -11 34
-11 22 0 45 -27 46 -53 0 -14 -4 -16 -17 -9 -10 5 -40 10 -68 10 -45 0 -48 -1
-30 -14 11 -7 25 -18 32 -24 7 -5 19 -10 28 -10 8 0 15 -5 15 -11 0 -12 -42
-8 -85 6 -11 4 -16 3 -10 -2 6 -4 17 -21 25 -38 19 -38 39 -54 68 -55 12 0 22
-4 22 -10 0 -14 -76 -13 -116 2 -27 9 -35 9 -49 -5 -9 -10 -12 -18 -6 -18 6
-1 16 -3 21 -4 6 -1 17 -3 26 -4 9 0 12 -6 8 -13 -5 -8 -2 -9 9 -5 10 3 17 2
17 -2 0 -16 33 -21 49 -8 26 22 51 28 51 12 0 -23 -54 -45 -100 -41 -59 5 -82
-2 -75 -24 5 -15 -2 -19 -42 -22 -26 -3 -50 -3 -52 -1 -2 1 4 13 15 25 10 13
15 20 10 16 -14 -11 -36 18 -31 42 2 12 10 29 17 39 12 14 11 15 -4 2 -16 -12
-18 -11 -19 10 -1 17 -3 19 -6 6 -2 -9 -8 -15 -13 -12 -4 2 -5 -17 -2 -43 5
-44 4 -46 -12 -33 -18 15 -68 22 -60 9 3 -4 14 -8 25 -8 23 0 49 -22 49 -42 0
-9 -15 -12 -57 -11 -45 2 -53 1 -35 -7 12 -5 22 -14 22 -20 0 -5 7 -10 15 -10
8 0 15 -5 15 -11 0 -7 -8 -9 -20 -5 -11 3 -29 9 -40 12 -16 5 -19 3 -14 -10 3
-9 10 -16 15 -16 5 0 9 -7 9 -15 0 -17 49 -44 68 -38 6 3 12 0 12 -6 0 -17
-80 -17 -110 -1 -9 5 -22 3 -32 -4 -21 -15 -13 -26 16 -26 12 0 31 -7 44 -15
19 -14 24 -14 52 0 25 13 30 13 30 1 0 -18 -44 -34 -99 -35 -24 -1 -47 -4 -50
-7 -12 -12 42 -44 75 -44 19 0 34 -5 34 -10 0 -7 -18 -9 -50 -5 -32 4 -50 2
-50 -5 0 -6 -6 -10 -12 -9 -37 4 -42 -2 -18 -21 14 -11 30 -20 36 -20 12 0 44
-32 44 -43 0 -4 -12 -7 -27 -7 -36 0 -73 -10 -73 -20 0 -4 12 -12 27 -19 20
-9 24 -14 13 -21 -7 -4 -19 -6 -26 -3 -24 9 -23 -15 2 -32 20 -13 28 -14 40
-4 23 19 28 3 5 -20 -12 -12 -30 -21 -41 -21 -11 0 -29 -5 -39 -12 -17 -10
-17 -13 -3 -27 8 -9 16 -14 16 -12 1 2 11 -1 24 -8 18 -9 27 -10 37 -1 8 6 24
10 37 7 21 -3 20 -5 -10 -17 -23 -8 -30 -15 -22 -20 19 -12 -19 -21 -79 -19
-28 1 -54 -1 -58 -4 -3 -4 -1 -7 6 -7 7 0 10 -4 6 -9 -7 -12 4 -19 46 -26 44
-9 49 -10 78 -22 43 -17 5 -26 -121 -29 -65 -1 -118 0 -118 2 0 3 13 10 30 15
16 6 28 15 25 19 -3 5 -1 11 5 15 21 13 9 24 -20 19 -39 -8 -38 1 3 27 l32 21
-47 -6 c-52 -6 -58 -1 -30 21 9 8 12 12 5 8 -18 -9 -28 42 -13 60 11 13 10 14
-4 9 -9 -3 -16 -1 -16 5 0 6 -7 8 -16 4 -11 -4 -12 -9 -5 -16 6 -6 11 -22 11
-36 0 -23 -1 -24 -20 -6 -11 10 -20 15 -20 11 0 -4 9 -16 20 -28 30 -32 25
-38 -27 -31 l-48 6 30 -27 30 -27 -27 5 c-27 6 -38 -6 -18 -19 6 -4 8 -10 5
-15 -4 -7 25 -23 47 -25 3 0 10 -4 15 -9 5 -5 -18 -6 -55 -2 -43 4 -62 2 -60
-5 2 -6 7 -10 11 -9 5 1 20 -6 34 -15 18 -12 28 -14 36 -6 13 13 37 15 37 3 0
-15 -44 -30 -75 -27 -16 2 -36 0 -43 -4 -19 -10 -4 -21 53 -38 l40 -13 -47 4
c-28 2 -45 0 -42 -6 3 -5 -2 -8 -11 -6 -28 5 -29 -21 -1 -28 31 -7 66 -43 45
-45 -48 -5 -60 -7 -67 -13 -4 -4 1 -13 11 -20 23 -18 22 -29 -3 -21 -11 3 -20
2 -20 -3 0 -18 29 -34 49 -27 16 5 20 3 15 -9 -3 -9 -18 -19 -33 -22 -65 -14
-65 -14 -47 -33 11 -11 32 -16 64 -15 46 2 46 1 18 -11 -20 -8 -25 -14 -15
-18 12 -5 -4 -7 -75 -11 -11 -1 -21 -7 -23 -13 -5 -13 6 -20 42 -26 106 -19
99 -42 -12 -39 -52 1 -37 -29 21 -44 28 -7 28 -8 10 -21 -10 -8 -30 -13 -44
-12 -14 0 -31 1 -37 0 -18 -1 -16 -38 2 -45 11 -4 14 -13 9 -31 -5 -20 -2 -25
12 -26 13 0 11 -4 -8 -11 -23 -8 -26 -13 -18 -28 7 -13 18 -17 37 -14 22 4 24
3 14 -10 -7 -8 -19 -12 -26 -10 -7 3 -23 1 -34 -5 -30 -17 -15 -41 25 -41 23
0 32 -4 29 -13 -6 -15 63 -39 71 -25 3 5 12 7 20 4 7 -3 16 -1 19 5 4 5 10 7
15 4 5 -3 11 -1 15 5 11 18 35 11 35 -11 0 -15 -5 -19 -15 -15 -8 3 -15 1 -15
-3 0 -5 7 -11 15 -15 10 -3 15 -19 15 -45 0 -34 -4 -40 -29 -49 -39 -14 -49
-47 -22 -76 16 -16 19 -30 15 -56 -6 -38 2 -75 106 -456 75 -275 122 -474 141
-602 10 -69 15 -82 28 -76 31 13 129 16 164 5 20 -7 54 -32 76 -56 32 -35 42
-41 51 -30 33 39 128 42 167 6 20 -19 21 -19 42 5 50 58 129 66 186 20 l30
-25 -41 6 c-52 7 -116 -25 -145 -70 -16 -25 -19 -45 -16 -89 2 -44 0 -55 -9
-47 -21 17 -44 76 -44 112 0 40 -11 47 -73 47 -46 0 -99 -27 -117 -59 -9 -17
-6 -23 13 -36 24 -15 67 -83 67 -106 0 -8 -8 -5 -22 8 -36 33 -63 43 -113 43
-82 0 -136 -36 -172 -115 l-18 -40 -3 53 c-6 99 71 182 169 182 42 0 45 2 56
38 14 43 4 55 -57 72 -120 33 -240 -31 -277 -147 -13 -42 -19 -50 -24 -36 -13
31 -10 112 5 148 13 30 13 35 -2 49 -66 59 -205 41 -260 -33 l-22 -30 29 -20
c38 -27 71 -96 71 -148 0 -36 3 -41 28 -46 70 -14 132 -87 147 -172 l7 -40
-36 42 c-48 55 -105 77 -190 71 -50 -3 -73 -10 -105 -32 -43 -30 -49 -49 -26
-79 24 -33 28 -92 9 -154 -18 -63 -17 -65 -38 30 -9 38 -73 107 -121 128 -64
29 -138 25 -203 -12 l-54 -30 19 32 c26 44 86 94 132 107 61 19 95 15 181 -22
10 -4 22 6 38 34 23 40 109 100 145 100 21 0 21 3 3 38 -29 55 -97 103 -164
115 -43 9 -120 -8 -155 -34 -38 -27 -42 -20 -14 22 36 54 97 91 162 98 l56 6
-36 42 c-97 114 -287 134 -399 41 -41 -34 -96 -112 -96 -136 0 -9 18 -30 40
-49 22 -19 40 -38 40 -43 0 -4 -21 -2 -47 6 -55 17 -150 18 -190 3 -46 -17
-113 -92 -113 -126 0 -4 31 -8 68 -8 56 0 80 -6 133 -32 61 -30 169 -125 124
-109 -114 41 -146 48 -218 48 -105 1 -180 -36 -266 -127 -34 -36 -61 -70 -61
-75 0 -6 -5 -10 -11 -10 -16 0 -2 75 26 136 26 58 79 115 132 142 l36 19 -35
26 c-97 74 -203 74 -280 0 -27 -26 -28 -26 -28 -6 0 31 18 75 41 99 l21 22
-39 13 c-95 32 -210 8 -256 -53 l-20 -26 37 -36 c44 -45 46 -58 5 -44 -16 6
-57 8 -89 6 -68 -5 -122 -40 -149 -96 -9 -17 -19 -32 -23 -32 -15 0 -8 99 8
134 16 32 16 35 -4 64 -44 61 -146 81 -211 41 -50 -30 -50 -15 0 35 35 35 54
46 90 51 75 11 148 -28 176 -94 11 -27 18 -32 36 -27 12 3 37 6 55 6 30 0 32
2 32 35 0 54 23 98 73 140 41 34 46 43 52 94 28 236 227 1005 295 1145 23 48
16 64 -43 104 -33 22 -48 27 -72 21 -66 -15 -68 -14 -108 75 -38 83 -39 84
-82 90 -25 4 -46 13 -49 22 -3 9 -6 53 -6 99 0 73 2 83 18 81 9 0 21 -7 25
-14 5 -7 13 -9 19 -6 6 4 15 0 20 -7 8 -11 11 -11 15 -1 4 10 8 10 21 0 20
-17 60 -17 67 0 3 8 12 11 25 7 21 -7 27 4 10 21 -8 8 1 11 27 12 20 1 43 8
51 16 12 12 11 16 -12 31 -14 10 -33 14 -42 11 -9 -4 -23 -1 -30 5 -17 14 -18
33 -1 22 28 -17 56 -6 70 30 5 14 1 17 -29 17 -21 0 -33 4 -29 10 3 6 14 10
23 10 11 0 18 8 18 20 0 18 -7 20 -56 21 -42 0 -50 2 -33 9 12 5 32 7 43 5 34
-7 70 15 70 42 0 23 -12 28 -66 24 -11 -1 -33 3 -50 9 l-29 12 25 13 c14 8 32
14 41 15 14 0 29 19 29 36 0 2 -17 4 -39 4 -49 0 -101 10 -101 20 0 6 29 16
75 25 57 12 74 20 78 36 5 17 -1 19 -63 19 -38 0 -72 5 -75 10 -3 5 2 10 12
11 11 0 5 5 -14 12 -43 16 -56 32 -18 22 45 -13 83 -8 110 13 l25 19 -59 17
c-42 12 -60 22 -64 36 -6 22 3 26 20 9 8 -8 18 -6 37 6 28 19 27 29 -4 30 -11
0 -20 3 -20 8 0 4 1 6 3 5 7 -5 39 33 34 39 -4 3 -25 7 -48 9 -41 4 -69 18
-69 36 0 5 5 6 11 2 12 -7 90 24 101 40 9 14 -11 26 -30 18 -11 -4 -13 -1 -7
7 5 10 -1 12 -26 10 -49 -3 -69 0 -69 10 0 4 12 7 27 5 15 -1 40 4 57 13 28
15 29 17 11 24 -11 4 -37 8 -57 8 -42 1 -68 9 -68 22 0 5 14 6 32 2 24 -5 29
-3 23 7 -6 9 -2 10 15 5 17 -5 21 -4 15 6 -6 8 -4 11 6 7 17 -6 43 18 29 27
-5 3 -19 3 -32 0 -77 -18 -129 -7 -66 14 22 8 39 23 51 47 17 35 17 36 0 29
-10 -4 -29 -10 -43 -12 -24 -4 -24 -4 -6 11 11 9 16 16 10 17 -5 0 7 7 26 15
l35 14 -62 -3 c-35 -2 -63 -1 -63 1 0 2 10 13 23 23 l22 20 -25 -11 c-20 -9
-19 -5 10 20 19 17 27 28 17 24 -13 -5 -16 -2 -11 12 3 11 -3 6 -13 -11 -17
-30 -18 -30 -21 -6 -2 13 1 28 7 34 17 17 13 31 -4 17 -12 -10 -15 -9 -15 4 0
14 -2 15 -14 4 -9 -9 -11 -19 -5 -30 11 -20 12 -58 2 -58 -3 0 -14 6 -22 14
-10 9 -23 11 -36 6 -18 -8 -17 -9 6 -9 22 -1 59 -35 59 -55 0 -2 -28 -2 -62 0
-47 3 -57 2 -40 -5 12 -6 22 -15 22 -21 0 -5 7 -10 15 -10 8 0 15 -5 15 -11 0
-7 -9 -9 -24 -5 -13 3 -30 7 -38 9 -7 2 -10 2 -5 0 4 -3 5 -9 1 -14 -3 -5 0
-9 6 -9 6 0 15 -11 20 -24 6 -16 20 -27 40 -31 21 -5 29 -10 22 -17 -7 -7 -29
-6 -67 2 -47 10 -59 9 -66 -1 -9 -16 8 -30 28 -22 7 3 13 0 13 -7 0 -6 4 -8
10 -5 5 3 10 1 10 -4 0 -14 37 -14 45 -1 3 6 16 10 28 10 43 -1 -23 -39 -68
-40 -84 -1 -89 -4 -57 -33 10 -10 29 -17 43 -18 13 0 33 -4 44 -9 14 -7 2 -8
-37 -6 -32 2 -58 -1 -58 -6 0 -5 -6 -8 -12 -7 -37 4 -42 -2 -19 -21 13 -11 29
-20 36 -20 13 0 51 -38 44 -45 -3 -2 -22 -6 -42 -8 -21 -2 -44 -12 -51 -22 -9
-13 -15 -15 -20 -7 -4 7 -19 12 -34 12 -35 1 -75 23 -78 44 -3 19 7 21 23 5 8
-8 19 -5 42 12 33 24 26 39 -15 31 -32 -6 -31 15 1 30 23 10 35 37 18 39 -5 0
-29 2 -54 4 -26 1 -52 5 -58 9 -21 13 -11 31 17 32 15 0 48 14 72 30 l45 29
-32 3 c-18 2 -33 7 -33 13 0 5 -25 9 -55 9 -30 0 -55 5 -55 10 0 6 21 10 48
10 46 1 75 14 79 37 2 6 -5 12 -15 12 -64 0 -109 5 -124 15 -24 15 -23 29 1
16 21 -11 54 -3 46 10 -3 5 4 6 15 3 11 -3 20 0 20 6 0 6 7 8 17 4 11 -4 14
-3 9 5 -5 8 1 12 15 12 22 0 22 0 4 14 -12 9 -26 11 -35 6 -27 -14 -113 -16
-118 -2 -2 7 0 12 5 10 16 -4 85 24 74 31 -7 4 -1 17 16 35 l27 29 -25 -6
c-13 -3 -34 -9 -46 -12 -15 -5 -23 -3 -23 4 0 6 5 11 10 11 6 0 10 7 10 16 0
10 6 14 15 10 8 -3 15 -1 15 4 0 5 7 7 15 4 8 -4 15 -1 15 6 0 9 -18 11 -65 8
-69 -6 -79 0 -43 26 15 10 17 14 6 10 -23 -8 -23 12 -1 24 9 6 17 19 18 31 1
16 -1 18 -11 10 -7 -6 -16 -19 -19 -30 -4 -10 -11 -19 -16 -19 -17 0 -9 47 13
76 l22 29 -22 -19 c-22 -19 -22 -19 -23 10 -1 23 -3 24 -6 7 -3 -15 -9 -20
-21 -16 -14 5 -15 3 -4 -8 6 -7 12 -28 12 -45 0 -25 -5 -34 -22 -40 l-23 -7
23 -8 c12 -5 22 -15 22 -23 0 -13 -12 -14 -68 -11 -37 2 -59 2 -49 -1 9 -3 17
-10 17 -15 0 -5 11 -15 25 -21 31 -14 33 -32 3 -24 -64 17 -73 18 -58 7 8 -6
11 -11 6 -11 -6 0 -2 -6 9 -13 10 -8 15 -18 12 -24 -8 -12 61 -46 75 -37 6 4
9 1 6 -7 -5 -15 -38 -17 -110 -5 -41 7 -48 6 -48 -8 0 -16 11 -20 39 -17 8 2
10 -2 5 -10 -5 -9 -2 -10 9 -6 10 3 17 2 17 -2 0 -16 33 -21 49 -8 29 25 51
28 51 8 0 -22 -60 -43 -113 -38 -20 2 -37 0 -37 -5 0 -4 -7 -5 -15 -2 -28 11
-16 -21 15 -39 16 -10 32 -18 35 -17 36 2 65 -2 65 -10 0 -7 -21 -9 -61 -4
-50 6 -60 4 -54 -6 6 -10 3 -12 -13 -8 -12 4 -22 2 -22 -4 0 -5 -4 -6 -10 -3
-5 3 -7 0 -4 -8 5 -13 38 -30 55 -29 3 1 19 -12 34 -28 l27 -29 -34 -6 c-18
-4 -38 -6 -43 -5 -47 10 -61 -19 -20 -38 33 -15 32 -32 -2 -32 -16 0 -53 0
-83 0 -30 0 -59 5 -65 11 -7 7 -5 10 5 8 16 -2 90 28 90 36 0 3 -26 3 -57 0
l-58 -6 35 20 c19 11 31 20 26 21 -5 0 -1 9 9 20 18 20 18 20 -16 13 -31 -6
-32 -5 -18 9 8 9 24 18 35 21 10 3 -1 5 -26 5 -62 0 -67 1 -51 11 8 5 16 20
17 33 2 13 0 17 -2 11 -3 -7 -10 -13 -15 -13 -13 0 -11 34 3 49 10 11 10 13 1
7 -7 -4 -13 -3 -13 3 0 6 -7 8 -16 4 -11 -4 -12 -9 -5 -16 13 -13 15 -47 3
-47 -4 0 -13 5 -20 12 -7 7 -12 8 -12 2 0 -5 9 -16 20 -24 31 -22 24 -30 -27
-30 l-48 0 30 -21 30 -21 -34 6 c-34 6 -34 6 -16 -14 10 -11 14 -20 9 -20 -5
-1 7 -10 26 -21 l35 -20 -58 6 c-40 4 -58 2 -55 -6 2 -6 7 -10 11 -10 4 1 20
-5 37 -14 18 -9 31 -11 35 -5 3 6 14 10 23 10 36 -1 -21 -30 -58 -30 -20 0
-40 -3 -43 -7 -13 -12 15 -33 44 -33 16 0 29 -4 29 -8 0 -4 -16 -6 -35 -4 -21
3 -35 0 -35 -7 0 -6 -6 -8 -14 -5 -8 3 -17 1 -20 -5 -4 -6 4 -13 18 -17 13 -3
32 -14 41 -24 15 -17 15 -19 -4 -25 -12 -3 -24 -4 -29 -1 -4 2 -14 0 -22 -5
-13 -8 -12 -11 3 -23 20 -16 23 -30 3 -23 -23 9 -28 -5 -7 -20 11 -7 26 -10
35 -7 9 3 16 2 16 -4 0 -9 -21 -19 -74 -36 -17 -6 -18 -8 -4 -22 17 -18 43
-21 78 -9 l25 8 -27 -27 c-20 -20 -36 -27 -60 -26 -51 3 -58 1 -52 -14 3 -8
30 -20 60 -26 30 -6 54 -15 54 -19 0 -11 -49 -20 -83 -17 -37 4 -30 -15 14
-36 29 -14 31 -17 15 -24 -10 -4 -30 -8 -45 -9 -46 -3 -49 -5 -47 -20 3 -22 9
-25 56 -30 58 -6 63 -15 8 -15 -33 0 -45 -4 -45 -15 0 -8 9 -15 21 -15 27 0 8
-17 -23 -22 -23 -3 -24 -4 -8 -20 10 -9 26 -15 38 -13 13 3 19 0 16 -8 -2 -7
-15 -11 -29 -9 -13 2 -30 -4 -37 -12 -10 -12 -9 -17 8 -25 11 -6 27 -11 35
-11 10 0 13 -6 9 -17 -4 -11 -3 -14 5 -9 6 4 20 1 32 -6 16 -10 24 -10 40 0
14 9 20 9 20 1 0 -8 4 -9 13 0 8 6 17 8 20 4 4 -3 7 -2 7 4 0 6 9 13 20 16 18
5 20 0 20 -38 0 -43 -1 -43 -27 -36 -44 11 -71 2 -112 -37 -37 -35 -39 -42
-47 -117 -5 -44 -9 -174 -8 -290 0 -172 4 -233 23 -338 167 -948 902 -1655
1851 -1783 139 -18 410 -18 557 1 780 101 1440 616 1732 1352 103 260 146 496
145 798 0 276 -47 546 -105 613 -16 18 -38 50 -49 72 -29 57 -53 70 -133 70
-49 0 -69 4 -73 14 -3 8 -15 16 -26 20 -17 4 -19 8 -9 19 9 12 17 12 36 3 14
-6 25 -15 25 -21 0 -5 4 -4 9 4 6 8 14 10 22 5 21 -13 42 -14 56 -3 7 6 17 8
24 4 8 -5 9 -1 4 15 -5 16 -4 20 5 15 6 -4 25 -1 41 5 23 10 27 15 18 26 -6 8
-26 14 -44 14 -18 0 -35 6 -38 13 -4 10 2 13 17 10 14 -3 30 3 41 14 18 17 18
18 -16 24 -30 5 -32 7 -14 15 38 17 28 34 -22 34 -56 0 -52 9 6 15 51 5 61 11
61 36 0 16 -7 19 -49 19 -59 0 -75 16 -32 33 48 18 48 37 -2 38 -23 0 -51 4
-62 8 -16 7 -10 11 34 25 30 9 60 16 66 16 6 0 12 7 12 15 0 11 -12 15 -48 15
-37 0 -54 6 -75 25 -25 23 -26 25 -6 25 11 0 23 -4 26 -9 7 -10 44 -3 63 12
19 14 7 25 -37 37 -25 7 -40 17 -40 27 0 11 3 13 13 5 9 -8 19 -5 37 8 l25 20
-30 0 -30 1 23 18 c30 26 28 31 -16 31 -21 0 -43 5 -50 12 -9 9 -3 16 30 28
23 8 43 21 46 29 3 10 0 12 -12 8 -9 -4 -16 -2 -16 3 0 6 -18 10 -40 10 -50 0
-53 16 -3 18 34 1 63 16 52 27 -3 2 -21 5 -40 6 -46 2 -69 9 -69 19 0 5 7 7
16 3 18 -7 96 26 88 38 -3 5 -15 7 -27 4 -51 -11 -77 -13 -82 -5 -3 4 6 11 20
14 13 3 32 20 40 36 l15 30 -26 -10 c-15 -6 -29 -8 -32 -6 -7 7 22 33 44 39
10 3 -1 5 -26 5 -63 0 -67 1 -50 12 8 5 16 14 16 20 1 5 2 11 4 13 1 1 3 11 5
22 3 17 1 17 -15 -5 -17 -22 -20 -23 -20 -6 0 11 8 29 18 40 16 20 16 20 0 7
-16 -12 -18 -11 -18 3 0 14 -2 15 -14 4 -9 -8 -11 -17 -5 -22 11 -12 12 -46 1
-46 -4 0 -12 4 -18 10 -6 6 -15 6 -24 0 -12 -8 -11 -10 5 -10 11 0 26 -9 33
-20 11 -19 10 -20 -31 -20 -24 0 -48 5 -54 11 -7 7 -36 13 -65 14 -59 3 -98
13 -98 26 0 12 7 11 30 -1 21 -11 53 -3 44 12 -4 6 2 7 16 3 17 -5 21 -4 15 6
-6 9 -2 11 13 7 12 -4 19 -2 16 3 -3 5 5 13 17 17 l23 9 -23 6 c-13 3 -34 1
-48 -4 -33 -12 -100 -11 -108 2 -4 6 -1 9 6 7 22 -4 79 23 72 35 -3 5 1 15 9
21 8 6 17 19 21 30 6 15 4 17 -10 11 -10 -3 -31 -9 -48 -12 l-30 -6 22 21 c12
12 33 24 47 28 48 12 16 23 -52 18 l-66 -5 24 28 c14 15 17 21 8 14 -11 -8
-18 -9 -18 -3 0 6 12 20 28 32 15 12 21 18 13 14 -10 -5 -12 -1 -6 17 5 18 0
15 -17 -11 l-23 -35 -3 28 c-2 17 4 37 14 48 9 10 12 19 6 19 -6 0 -14 -6 -19
-12 -5 -9 -10 -3 -14 17 -5 24 -7 26 -8 7z m240 -439 c28 -17 41 -40 17 -30
-47 19 -47 19 -41 -2 6 -22 -12 -30 -19 -9 -3 7 -23 11 -50 10 -26 -1 -50 2
-53 8 -4 6 7 10 27 10 18 0 44 7 58 14 14 8 27 14 28 15 2 1 17 -7 33 -16z
m-328 -22 c9 -1 17 -5 17 -10 0 -4 -22 -6 -50 -3 -27 2 -57 1 -67 -3 -10 -5
-27 -10 -38 -12 -16 -2 -17 -1 -5 7 8 5 11 10 5 11 -5 0 -1 4 10 9 11 5 40 7
65 5 25 -2 53 -4 63 -4z m377 -71 c0 -12 -27 -12 -55 0 -16 7 -13 9 18 9 20 1
37 -3 37 -9z m-456 -37 c-22 -16 -104 -17 -104 -1 0 6 3 9 6 6 3 -4 24 2 47
12 31 14 45 16 55 7 12 -9 11 -13 -4 -24z m407 0 c9 -2 20 0 23 6 8 13 36 15
36 2 0 -15 -52 -29 -112 -31 -48 -1 -58 2 -68 20 -10 19 -9 20 14 14 16 -4 26
-2 26 4 0 7 10 7 33 0 17 -5 39 -12 48 -15z m-471 -63 c24 -15 7 -19 -20 -5
-15 8 -19 14 -10 14 8 1 22 -3 30 -9z m490 -10 c0 -5 -7 -7 -15 -4 -8 4 -15 8
-15 10 0 2 7 4 15 4 8 0 15 -4 15 -10z m-480 -60 c0 -5 -4 -10 -10 -10 -5 0
-10 5 -10 10 0 6 5 10 10 10 6 0 10 -4 10 -10z m410 -15 c10 -12 10 -15 -3
-15 -8 0 -17 7 -21 15 -3 8 -2 15 3 15 5 0 14 -7 21 -15z m-1 -111 c2 -2 2 -7
-2 -10 -9 -9 -57 5 -57 16 0 9 47 4 59 -6z m-3341 -160 c16 -17 28 -18 37 -4
11 17 23 11 18 -10 -7 -27 -72 -48 -87 -28 -6 8 -17 13 -23 11 -7 -3 -13 0
-13 6 0 6 -17 11 -37 12 l-38 1 35 10 c19 5 39 14 45 19 11 11 44 2 63 -17z
m538 -84 c5 1 10 -3 12 -9 3 -9 -14 -10 -67 -2 -3 1 4 7 15 15 12 9 21 11 25
4 3 -5 10 -9 15 -8z m-601 -1 c4 -6 5 -13 2 -15 -7 -8 -57 7 -57 17 0 13 47
11 55 -2z m141 -34 c-11 -8 -29 -15 -40 -16 -12 0 -15 -3 -8 -6 21 -8 13 -21
-18 -25 -18 -3 -31 0 -34 9 -3 7 -12 10 -21 7 -22 -9 -18 9 5 24 11 7 31 10
44 6 13 -3 27 -1 30 5 4 6 19 11 34 11 26 -1 26 -1 8 -15z m315 2 c3 -4 25 -3
49 2 38 8 48 7 73 -11 24 -17 33 -19 48 -10 16 10 19 9 19 -7 0 -27 -30 -31
-167 -23 -34 2 -47 21 -15 23 9 0 1 5 -18 11 -48 13 -64 31 -25 26 17 -1 33
-7 36 -11z m2187 -87 c7 -11 21 -20 31 -20 11 0 23 -5 26 -10 4 -6 11 -8 16
-5 5 4 9 2 9 -4 0 -16 -16 -21 -71 -25 -33 -3 -47 -1 -38 5 20 13 -7 29 -42
25 -14 -2 -34 4 -45 12 -18 14 -18 14 3 8 12 -4 24 -2 28 4 3 6 11 8 16 5 5
-4 9 -1 9 5 0 6 5 8 10 5 6 -3 10 -1 10 4 0 18 24 12 38 -9z m-2047 -36 c6 -3
24 0 40 6 16 7 32 10 36 6 3 -3 -9 -12 -27 -20 -21 -8 -28 -15 -19 -18 26 -10
-82 -20 -133 -14 -72 10 -78 17 -32 37 37 16 112 18 135 3z m-479 -26 c-5 -5
-31 -11 -59 -14 -38 -5 -56 -2 -77 11 -31 21 -29 29 5 16 16 -6 35 -5 54 3 32
13 93 0 77 -16z m2461 -19 c-8 -8 -16 -8 -30 0 -16 9 -14 10 12 11 21 0 26 -3
18 -11z m-2530 -63 c-4 -5 2 -7 13 -3 18 7 18 6 -1 -8 -11 -9 -29 -14 -40 -11
-11 3 -26 6 -32 6 -19 0 -15 18 5 23 29 7 61 3 55 -7z m570 -1 c42 -11 32 -23
-25 -30 -55 -7 -108 6 -108 25 0 6 5 8 10 5 6 -3 10 -2 10 3 0 11 69 9 113 -3z
m2097 3 c0 -4 -25 -8 -55 -8 -30 0 -54 -4 -52 -9 1 -5 -1 -9 -5 -10 -45 -6
-52 13 -10 27 33 11 122 12 122 0z m601 -115 c9 -7 19 -10 22 -6 4 3 14 -2 22
-13 13 -17 14 -17 15 -1 0 20 11 22 28 5 13 -13 62 -18 62 -5 0 4 4 6 9 3 5
-4 11 -1 13 6 3 9 6 9 12 0 6 -10 -43 -53 -91 -80 -8 -5 -16 -82 -24 -232
l-12 -225 -58 -117 c-58 -116 -59 -118 -49 -169 12 -65 5 -77 -10 -18 -6 24
-13 49 -15 56 -2 7 20 63 49 125 l54 113 3 195 4 194 -40 12 -40 11 -3 86 c-3
80 -1 86 15 80 10 -3 25 -12 34 -20z m-2761 -3 c0 -5 -10 -10 -22 -10 -19 0
-20 2 -8 10 19 13 30 13 30 0z m2110 3 c10 9 11 9 8 -3 -5 -16 -40 -25 -64
-16 -9 3 -13 10 -9 16 3 5 15 6 29 0 16 -6 28 -5 36 3z m520 -15 c0 -13 -32
-6 -37 9 -3 7 3 9 16 6 12 -3 21 -10 21 -15z m-530 -88 c-6 -12 -17 -16 -30
-13 -11 3 -17 9 -14 14 3 5 0 9 -5 9 -6 0 -11 4 -11 8 0 4 16 6 35 4 30 -4 33
-7 25 -22z m220 -35 c0 -53 -1 -55 -34 -69 -18 -8 -46 -30 -62 -50 -16 -19
-31 -31 -34 -25 -4 5 -28 11 -54 13 -25 2 -50 6 -54 10 -8 9 17 26 38 26 8 0
20 8 27 19 11 17 9 19 -20 18 -100 -2 -117 14 -34 33 28 7 57 17 64 22 7 5 17
7 22 4 5 -4 14 2 20 11 9 16 12 16 21 3 8 -13 11 -13 19 -1 5 7 14 10 20 7 6
-4 11 -2 11 4 0 8 25 24 48 29 1 1 2 -24 2 -54z m113 28 c5 -7 13 -10 19 -7 6
4 15 0 20 -7 8 -11 11 -11 15 -1 4 10 8 10 20 1 15 -13 65 -20 57 -8 -6 10 26
20 38 12 7 -4 9 2 6 15 -4 12 -2 22 3 22 5 0 9 -17 9 -38 0 -31 -5 -41 -29
-55 -16 -9 -42 -32 -57 -50 -30 -36 -41 -36 -101 -5 l-43 23 0 62 c0 55 2 62
18 56 9 -4 21 -13 25 -20z m-3021 -132 c3 -3 -11 -26 -33 -50 l-39 -44 0 56 0
57 33 -7 c17 -3 35 -8 39 -12z m272 -16 c-4 -8 -8 -15 -10 -15 -2 0 -4 7 -4
15 0 8 4 15 10 15 5 0 7 -7 4 -15z m131 -9 c9 -12 15 -14 20 -6 5 8 11 6 19
-6 10 -12 15 -14 20 -5 6 9 13 8 31 -3 15 -10 25 -12 27 -5 2 6 12 1 22 -10
18 -19 17 -20 -25 -42 -24 -12 -61 -33 -82 -47 l-39 -26 46 -11 c51 -13 81
-36 102 -77 23 -44 17 -68 -7 -27 -27 46 -71 72 -134 79 l-50 5 -3 102 c-3
101 -2 103 19 100 12 -2 28 -11 34 -21z m165 -26 c0 -5 -2 -10 -4 -10 -3 0 -8
5 -11 10 -3 6 -1 10 4 10 6 0 11 -4 11 -10z m210 -66 l0 -64 -43 43 c-40 39
-52 75 -21 63 7 -3 17 1 23 8 6 7 18 13 26 13 12 0 15 -14 15 -63z m-100 36
c0 -5 -5 -10 -11 -10 -5 0 -7 5 -4 10 3 6 8 10 11 10 2 0 4 -4 4 -10z m2100 6
c0 -21 -26 -66 -38 -66 -13 0 -13 2 3 13 24 18 12 36 -20 30 -13 -3 -33 -2
-42 3 -13 6 -5 10 32 14 28 4 53 8 58 8 4 1 7 0 7 -2z m-425 -16 c-3 -5 -17
-10 -31 -10 -13 0 -24 5 -24 10 0 6 14 10 31 10 17 0 28 -4 24 -10z m405 -99
c3 -1 -3 -6 -13 -12 -17 -10 -37 -5 -37 10 0 7 31 8 50 2z m0 -90 c0 -28 -2
-28 -66 -35 -37 -4 -82 -13 -102 -21 -19 -8 -36 -15 -37 -15 -2 0 -5 20 -7 45
-3 37 0 45 14 45 9 0 20 -5 23 -10 4 -6 11 -8 16 -5 5 4 9 1 9 -5 0 -7 7 -10
15 -6 8 3 26 1 40 -4 16 -6 25 -6 25 0 0 6 9 10 21 10 15 0 19 5 15 15 -4 10
1 15 14 15 15 0 20 -7 20 -29z m-280 -150 c0 -5 -5 -22 -10 -37 -10 -25 -12
-26 -26 -12 -13 12 -14 20 -5 37 12 21 41 29 41 12z"/>
<path d="M3380 5062 c-72 -24 -125 -59 -178 -116 -128 -139 -148 -356 -47
-516 103 -164 315 -237 501 -174 232 78 350 355 246 577 -42 90 -118 169 -201
209 -58 28 -78 32 -166 35 -76 2 -113 -1 -155 -15z m265 -19 c102 -36 197
-122 243 -221 24 -50 27 -69 27 -162 0 -97 -2 -110 -32 -173 -121 -254 -451
-314 -651 -117 -168 165 -162 428 14 590 106 97 265 130 399 83z"/>
<path d="M4302 4910 c-15 -25 -15 -31 1 -24 7 2 13 13 14 24 2 25 1 25 -15 0z"/>
<path d="M1570 4902 c0 -12 19 -26 26 -19 2 2 -2 10 -11 17 -9 8 -15 8 -15 2z"/>
<path d="M1538 4893 c7 -3 16 -2 19 1 4 3 -2 6 -13 5 -11 0 -14 -3 -6 -6z"/>
<path d="M3866 4275 c-3 -8 -1 -15 4 -15 6 0 10 7 10 15 0 8 -2 15 -4 15 -2 0
-6 -7 -10 -15z"/>
<path d="M2890 3079 c-52 -5 -131 -16 -175 -24 -61 -11 -67 -13 -25 -9 234 20
317 24 477 24 100 0 239 -5 308 -11 157 -13 186 -7 45 10 -135 17 -507 22
-630 10z"/>
<path d="M3638 3043 c6 -2 18 -2 25 0 6 3 1 5 -13 5 -14 0 -19 -2 -12 -5z"/>
<path d="M2605 2773 c-101 -239 -176 -498 -220 -758 -14 -81 -25 -154 -25
-163 0 -10 21 -28 49 -44 l48 -26 7 111 c20 322 78 644 162 890 13 39 22 72
20 74 -2 2 -20 -36 -41 -84z"/>
<path d="M3001 2784 c0 -11 3 -14 6 -6 3 7 2 16 -1 19 -3 4 -6 -2 -5 -13z"/>
<path d="M2971 2569 c-25 -213 -56 -535 -66 -702 l-7 -109 33 4 c23 2 36 9 41
23 3 11 6 123 7 250 1 126 6 337 12 467 6 131 9 243 7 249 -2 6 -14 -75 -27
-182z"/>
<path d="M3581 2635 c-2 -23 52 -218 118 -429 39 -125 71 -233 71 -241 0 -11
11 -15 39 -15 l39 0 -29 83 c-17 45 -72 188 -123 317 -51 129 -98 249 -104
265 -6 17 -11 26 -11 20z"/>
<path d="M3354 2435 c3 -22 12 -112 22 -200 9 -88 20 -163 23 -166 3 -4 16
-10 28 -13 l21 -7 -23 108 c-37 171 -75 322 -71 278z"/>
<path d="M2776 2178 c-22 -166 -46 -429 -46 -497 0 -63 14 -99 25 -66 4 11 11
30 16 43 5 13 9 100 9 195 0 95 5 232 10 306 6 74 9 136 7 138 -2 2 -12 -52
-21 -119z"/>
</g>
</svg>
