<?xml version="1.0" standalone="no"?>
<!DOCTYPE svg PUBLIC "-//W3C//DTD SVG 20010904//EN"
 "http://www.w3.org/TR/2001/REC-SVG-20010904/DTD/svg10.dtd">
<svg version="1.0" xmlns="http://www.w3.org/2000/svg"
 width="920.000000pt" height="512.000000pt" viewBox="0 0 920.000000 512.000000"
 preserveAspectRatio="xMidYMid meet">

<g transform="translate(0.000000,512.000000) scale(0.100000,-0.100000)"
fill="#000000" stroke="none">
<path d="M4536 5099 c-14 -11 -166 -255 -338 -541 l-313 -521 -3 -649 -2 -648
-439 -220 c-298 -149 -445 -228 -460 -246 l-21 -27 2 -1099 3 -1100 28 -24 28
-24 504 0 504 0 28 24 28 24 5 584 c5 578 5 584 28 648 76 212 266 350 482
350 132 0 246 -46 342 -138 70 -66 109 -126 140 -212 23 -64 23 -70 28 -648
l5 -584 28 -24 28 -24 504 0 504 0 28 24 28 24 3 1100 2 1099 -21 27 c-15 18
-162 97 -460 246 l-439 220 -2 648 -3 649 -313 521 c-172 286 -324 530 -338
541 -16 13 -41 21 -64 21 -23 0 -48 -8 -64 -21z m276 -647 l208 -347 -210 -3
c-116 -1 -304 -1 -420 0 l-210 3 208 347 c114 191 209 347 212 347 3 0 98
-156 212 -347z m298 -1082 c0 -286 -2 -520 -5 -520 -3 0 -70 33 -150 72 l-145
73 0 215 c0 242 -6 268 -73 327 -79 69 -195 69 -274 0 -67 -59 -73 -85 -73
-327 l0 -215 -145 -73 c-80 -39 -147 -72 -150 -72 -3 0 -5 234 -5 520 l0 520
510 0 510 0 0 -520z m205 -867 l715 -358 0 -967 0 -968 -355 0 -355 0 0 495
c0 570 -2 591 -78 745 -38 79 -60 109 -132 180 -130 129 -249 189 -425 212
-147 20 -321 -16 -453 -94 -31 -18 -95 -71 -142 -118 -72 -71 -94 -101 -132
-180 -76 -154 -78 -175 -78 -745 l0 -495 -355 0 -355 0 0 968 0 967 713 357
c391 196 713 357 714 357 2 1 325 -160 718 -356z"/>
<path d="M3370 1075 l0 -265 155 0 155 0 0 265 0 265 -155 0 -155 0 0 -265z"/>
<path d="M5520 1075 l0 -265 155 0 155 0 0 265 0 265 -155 0 -155 0 0 -265z"/>
</g>
</svg>
