<?xml version="1.0" standalone="no"?>
<!DOCTYPE svg PUBLIC "-//W3C//DTD SVG 20010904//EN"
 "http://www.w3.org/TR/2001/REC-SVG-20010904/DTD/svg10.dtd">
<svg version="1.0" xmlns="http://www.w3.org/2000/svg"
 width="980.000000pt" height="980.000000pt" viewBox="0 0 980.000000 980.000000"
 preserveAspectRatio="xMidYMid meet">

<g transform="translate(0.000000,980.000000) scale(0.100000,-0.100000)"
fill="#000000" stroke="none">
<path d="M3707 7536 c43 -35 100 -87 128 -115 41 -42 47 -53 35 -61 -8 -5 -21
-10 -28 -10 -8 0 23 -40 67 -88 45 -49 81 -92 81 -95 0 -3 -14 -2 -31 3 -17 5
-29 6 -27 2 2 -4 15 -31 31 -59 34 -66 70 -160 65 -174 -2 -6 -21 10 -42 36
-68 81 -193 167 -291 200 -211 71 -432 13 -690 -181 -86 -66 -166 -138 -143
-131 138 44 461 107 475 93 4 -3 -8 -24 -26 -46 -17 -22 -30 -40 -28 -40 3 0
47 8 98 19 52 10 117 22 144 25 28 4 62 9 78 12 40 8 33 -7 -20 -41 l-48 -30
82 -11 c79 -11 230 -51 246 -64 4 -3 -48 -11 -116 -18 -219 -20 -376 -81 -535
-207 -124 -99 -257 -271 -323 -420 -29 -67 -35 -74 -67 -80 -63 -12 -153 -65
-219 -129 -35 -34 -65 -60 -67 -58 -6 6 18 70 48 130 l27 53 -28 -7 c-24 -6
-19 3 42 65 58 59 66 71 47 71 -12 0 -22 4 -22 8 0 8 92 101 145 146 38 32 27
32 -63 2 -195 -67 -288 -171 -300 -338 -2 -37 -7 -68 -11 -68 -3 1 -17 24 -31
53 -37 77 -124 161 -182 175 -26 7 -57 12 -70 12 -39 0 -130 -27 -196 -58
l-63 -29 100 -11 c116 -12 128 -17 104 -40 -15 -16 -11 -17 56 -29 93 -15 101
-19 72 -30 -17 -7 -36 -5 -62 4 -159 54 -311 -4 -446 -170 -35 -43 -63 -82
-63 -87 0 -5 54 19 120 52 66 34 123 58 127 55 3 -4 1 -18 -5 -32 l-12 -25 38
16 c83 36 152 64 158 64 4 0 0 -8 -8 -17 -31 -36 -28 -38 60 -35 87 4 152 -3
152 -16 0 -4 -53 -7 -118 -7 -64 -1 -142 -7 -172 -14 -271 -65 -442 -294 -466
-624 l-7 -92 80 123 c43 67 99 146 123 174 l45 52 8 -43 c5 -24 12 -39 16 -35
4 5 43 54 86 109 103 132 99 129 91 72 l-6 -49 48 34 c63 46 123 79 204 112
76 32 114 30 51 -3 -122 -62 -237 -151 -331 -256 -121 -133 -174 -259 -174
-410 0 -141 39 -259 135 -408 l44 -68 -5 159 c-3 88 -1 190 3 227 l7 67 34
-33 c29 -28 34 -30 34 -13 0 40 30 297 35 302 7 7 9 3 28 -43 16 -39 16 -39
23 -15 30 104 174 331 264 415 48 45 48 45 -4 -42 -106 -178 -151 -386 -112
-528 20 -73 58 -153 108 -229 52 -76 165 -205 207 -235 27 -19 25 -14 -29 97
-59 119 -114 261 -106 269 3 3 19 -5 35 -17 17 -12 31 -20 31 -18 0 2 -17 55
-38 118 -46 138 -55 170 -45 170 5 0 17 -14 28 -30 11 -16 22 -30 25 -30 3 0
6 71 7 158 1 86 5 175 10 197 l9 40 49 -90 c56 -102 194 -386 223 -461 11 -27
42 -105 70 -174 27 -69 74 -199 103 -289 l53 -164 -40 -35 c-61 -54 -171 -125
-263 -171 -62 -32 -104 -63 -165 -122 -71 -70 -97 -87 -206 -140 -69 -33 -188
-96 -265 -139 -77 -42 -176 -90 -219 -106 -44 -15 -75 -29 -70 -30 5 -2 73 -8
151 -14 l143 -10 157 39 c152 38 166 39 363 44 232 5 306 19 429 81 39 20 77
36 84 36 10 0 16 -19 21 -61 10 -102 11 -99 -35 -99 -35 0 -52 -9 -108 -52
-94 -73 -169 -153 -266 -283 -124 -165 -187 -206 -387 -251 -61 -14 -134 -34
-162 -45 -107 -39 -200 -172 -201 -284 0 -73 17 -104 82 -145 116 -74 296 -85
1403 -84 1187 0 2081 31 2162 75 20 11 20 12 -9 30 -16 10 -78 37 -137 59
-116 44 -228 97 -279 131 -27 19 -180 150 -197 169 -17 20 -73 49 -120 64
-102 32 -159 75 -231 172 -68 93 -89 98 -369 101 -129 2 -249 5 -266 8 -29 5
-33 11 -52 78 -53 180 -75 293 -57 291 6 -1 70 -18 143 -39 73 -20 137 -35
142 -33 5 2 -69 140 -166 308 l-175 305 6 175 c4 96 9 179 12 183 2 4 81 -117
175 -270 94 -153 174 -281 177 -285 4 -4 81 -23 171 -43 202 -43 196 -41 570
-187 168 -66 312 -122 320 -124 16 -6 3 2 -300 179 -113 65 -239 144 -280 175
-41 30 -76 56 -78 57 -3 3 45 336 67 460 16 86 31 130 73 216 29 60 55 109 58
109 3 0 25 -35 49 -78 128 -225 238 -380 526 -742 116 -146 231 -291 254 -322
24 -32 45 -58 47 -58 1 0 -2 15 -7 33 -5 17 -44 154 -85 302 -42 149 -92 317
-111 375 -45 133 -122 333 -132 342 -4 5 -43 -24 -86 -63 -75 -67 -80 -70 -83
-47 -3 25 46 569 51 575 2 1 129 -146 282 -327 153 -182 281 -333 286 -335 24
-15 -65 215 -139 358 -9 17 37 5 94 -24 l60 -31 249 -499 c137 -274 251 -497
252 -495 2 2 -26 159 -62 349 -36 191 -65 354 -65 364 0 23 616 -591 675 -672
24 -33 62 -94 84 -135 l41 -75 -5 50 c-13 113 -21 216 -16 220 2 3 9 1 15 -4
22 -17 488 -262 492 -259 5 5 -357 363 -413 409 l-43 34 -19 135 c-20 138 -29
245 -20 245 2 0 26 -18 53 -39 36 -30 58 -61 89 -124 36 -76 59 -104 221 -272
100 -103 182 -187 184 -185 1 1 -4 17 -12 36 -20 48 -58 200 -52 207 3 2 56
-8 118 -24 l113 -29 290 -193 c160 -107 283 -188 275 -179 -20 19 -452 382
-510 429 -25 19 -76 46 -114 58 -57 19 -82 35 -143 91 -41 38 -78 69 -82 69
-5 0 -35 -25 -67 -55 -33 -30 -61 -55 -64 -55 -4 0 -15 19 -27 43 -35 70 -135
196 -241 301 l-100 99 -123 -102 c-74 -61 -130 -100 -140 -98 -9 2 -92 54
-185 114 -421 274 -548 355 -601 384 -57 31 -59 31 -164 25 l-106 -5 -56 81
c-52 76 -381 438 -397 438 -4 0 -38 -34 -75 -75 -37 -42 -70 -73 -73 -71 -3 3
0 11 6 18 23 29 81 188 98 268 23 116 15 266 -20 375 -55 174 -200 361 -392
507 -80 61 -245 168 -260 168 -6 0 -17 7 -24 15 -17 21 -3 19 76 -11 102 -38
237 -112 305 -166 63 -52 69 -49 48 25 -6 21 -9 43 -7 49 4 11 138 -147 213
-252 l40 -54 10 52 c5 29 13 54 17 55 17 5 163 -192 259 -351 34 -56 64 -101
66 -98 5 5 -15 209 -28 276 -66 347 -259 575 -564 666 -78 23 -110 26 -235 28
-80 0 -174 -3 -208 -7 -95 -12 -68 7 39 28 67 13 119 16 200 13 l109 -6 -30
35 c-17 18 -30 35 -30 38 0 2 57 -21 127 -51 70 -30 129 -54 130 -54 2 0 -3
16 -11 35 -13 30 -13 35 -1 35 19 0 145 -56 218 -97 33 -18 61 -33 64 -33 3 0
19 -10 36 -22 17 -12 27 -16 22 -7 -37 63 -97 141 -152 200 -130 138 -257 196
-407 186 -44 -3 -103 -12 -129 -22 -47 -16 -107 -13 -107 5 0 4 33 13 73 19
39 7 86 14 104 17 23 3 30 9 26 19 -3 8 -9 15 -14 15 -5 0 -9 6 -9 14 0 18 50
28 185 35 l110 6 -70 36 c-174 90 -320 109 -427 56 -72 -36 -144 -113 -194
-211 -22 -42 -42 -76 -46 -76 -5 0 -8 27 -8 60 0 190 -98 343 -275 433 -48 24
-234 87 -256 87 -6 0 24 -29 68 -64z m213 -951 c0 -3 -37 -23 -82 -46 -132
-66 -217 -127 -319 -229 -100 -100 -172 -199 -219 -306 -16 -35 -34 -64 -40
-64 -5 0 -10 4 -10 9 0 15 -159 90 -220 103 -33 6 -60 15 -60 19 0 18 259 238
261 222 1 -4 0 -26 0 -48 -1 -22 2 -35 6 -30 7 9 99 96 226 214 26 24 51 41
54 37 4 -3 -1 -23 -11 -42 -9 -20 -15 -39 -12 -41 2 -3 25 9 49 26 73 50 296
157 375 180 1 1 2 -1 2 -4z m371 -132 c143 -149 282 -373 330 -533 l13 -43 23
49 c12 27 23 55 23 62 0 6 5 12 10 12 6 0 10 -5 10 -10 0 -6 7 -68 15 -138 8
-70 17 -162 20 -206 l7 -78 39 38 c21 21 41 35 44 32 21 -21 32 -276 19 -444
l-7 -81 -151 -90 c-173 -103 -168 -98 -333 -355 -94 -146 -110 -165 -125 -155
-132 96 -281 179 -369 207 -24 7 -48 16 -52 20 -20 17 48 553 109 862 60 307
182 765 197 741 12 -19 28 -272 25 -392 l-3 -123 43 48 c23 27 42 44 42 38 0
-6 -26 -93 -59 -193 -32 -99 -56 -181 -53 -181 2 0 20 10 39 21 19 12 36 19
38 17 13 -13 -79 -245 -167 -422 l-50 -99 39 31 c59 46 167 164 234 254 72 98
123 186 169 298 34 84 35 87 35 230 0 137 -2 151 -34 250 -35 112 -108 268
-160 344 -18 25 -28 46 -24 46 5 0 34 -26 64 -57z m-377 -155 c-8 -24 -37
-119 -64 -213 -103 -356 -196 -816 -260 -1287 l-12 -87 -106 -67 c-112 -70
-279 -189 -323 -231 l-26 -24 -18 48 c-85 227 -320 736 -397 861 -33 53 -3 36
43 -25 61 -82 62 -83 56 -40 -3 22 -2 37 3 35 6 -2 36 -58 67 -125 32 -67 61
-122 64 -123 3 0 9 12 15 27 l9 28 30 -50 c38 -65 145 -282 145 -294 0 -6 5
-13 12 -17 16 -10 3 224 -17 306 -55 215 -211 414 -408 520 -83 45 -107 66
-55 48 35 -12 168 -80 230 -117 l38 -23 -11 32 c-6 17 -9 33 -7 35 2 2 53 -42
112 -98 103 -96 109 -100 104 -69 -3 20 0 32 7 32 14 0 94 -69 213 -184 50
-49 92 -87 92 -84 0 15 -41 120 -65 168 -28 56 -99 165 -121 188 -10 10 -10
20 3 50 24 58 107 220 151 297 l41 70 16 -39 17 -40 86 175 87 174 3 -54 3
-54 26 39 c29 43 56 76 152 182 35 39 68 72 73 72 4 0 0 -19 -8 -42z m-734
-428 c30 -6 55 -12 58 -14 2 -3 -3 -35 -11 -73 -9 -37 -19 -105 -23 -150 -3
-46 -8 -83 -10 -83 -2 0 -25 16 -50 35 -128 98 -253 141 -464 158 -32 2 -30 4
35 25 39 12 97 26 130 30 l60 8 -32 20 c-18 10 -33 23 -33 27 0 10 72 2 173
-19 92 -19 95 -18 62 16 l-29 30 41 0 c22 0 64 -5 93 -10z m275 -2203 l60 -13
6 -109 c4 -61 6 -111 5 -112 -1 -1 -26 14 -56 32 -30 19 -63 35 -72 35 -10 0
-18 2 -18 4 0 2 -7 40 -15 83 -8 43 -15 81 -15 86 0 10 35 8 105 -6z"/>
<path d="M5700 6622 c0 -37 40 -82 100 -112 57 -29 210 -161 210 -182 0 -5
-13 -15 -30 -21 -36 -14 -38 -23 -7 -31 51 -13 110 -6 155 20 40 23 51 26 111
20 126 -11 316 -18 310 -12 -19 21 -200 48 -305 47 -133 -2 -177 14 -263 93
-61 56 -108 90 -213 155 -55 33 -68 38 -68 23z"/>
<path d="M6240 6040 c6 -11 27 -29 48 -39 47 -24 122 -102 105 -108 -7 -3 -13
-9 -13 -15 0 -6 15 -7 43 -3 23 5 94 8 157 7 90 -1 111 2 95 11 -11 6 -58 12
-105 14 -114 5 -121 7 -171 49 -53 45 -144 104 -159 104 -8 0 -8 -6 0 -20z"/>
<path d="M6770 5925 c0 -18 24 -46 57 -66 21 -12 59 -43 86 -68 46 -44 47 -46
25 -57 -21 -11 -21 -12 9 -18 20 -5 45 -1 69 9 32 13 61 15 154 11 113 -6 114
-5 65 9 -27 8 -86 15 -130 15 -88 0 -113 11 -197 81 -47 39 -138 95 -138 84z"/>
<path d="M6000 3380 l1945 -5 -1815 -5 c-998 -3 -1844 -4 -1880 -4 -41 1 -54
-1 -35 -5 43 -9 3794 -1 3770 8 -10 4 40 8 113 8 149 0 169 -10 29 -14 -105
-3 -117 -4 -117 -12 0 -3 -741 -7 -1648 -8 -906 -1 -1665 -3 -1687 -4 -22 -1
-166 0 -320 1 -346 3 -352 3 -339 -10 8 -8 19 -8 38 0 40 15 106 13 106 -3 0
-10 -15 -13 -57 -11 l-58 3 55 -9 c30 -5 108 -11 172 -12 65 -2 118 -6 118 -9
0 -3 62 -9 138 -13 234 -11 593 -36 687 -47 149 -17 191 -34 149 -57 -11 -6
-13 -12 -6 -16 6 -3 17 2 24 12 19 27 58 24 58 -5 0 -21 -5 -23 -44 -23 -25 0
-48 5 -51 10 -3 6 -14 10 -23 10 -15 -1 -15 -2 2 -15 22 -17 9 -20 -27 -6 -16
6 -63 3 -143 -9 -65 -10 -102 -18 -81 -19 23 -1 36 -5 32 -11 -3 -5 -1 -10 4
-10 6 0 11 -5 11 -10 0 -7 -13 -8 -36 -4 -24 4 -35 3 -31 -3 7 -11 42 -15 337
-37 277 -21 378 -26 350 -16 -23 7 -23 8 -4 9 12 1 27 -5 33 -13 7 -8 46 -17
94 -22 100 -11 127 -9 195 11 28 9 29 -10 1 -26 -13 -7 -19 -7 -15 -1 5 9 -11
10 -54 3 -3 -1 6 -7 19 -14 33 -16 37 -33 9 -40 -13 -3 -58 -14 -100 -25 -43
-11 -80 -18 -83 -16 -3 2 -3 1 0 -2 2 -4 35 -8 72 -9 51 -2 60 0 38 6 -26 7
-24 8 13 5 39 -4 57 7 30 17 -7 2 1 8 17 11 17 4 40 11 53 16 17 8 22 6 22 -6
0 -15 -23 -44 -35 -44 -3 0 -3 6 0 13 4 6 -1 3 -9 -7 -9 -11 -16 -26 -16 -34
0 -9 -6 -12 -16 -8 -9 3 -19 6 -22 6 -4 0 -2 4 5 8 6 4 -25 8 -70 9 -45 1 -97
5 -116 9 -24 5 -32 3 -27 -5 4 -6 19 -11 33 -11 15 0 24 -3 20 -6 -3 -3 -22
-6 -41 -6 -20 0 -36 -3 -36 -8 0 -4 -12 -5 -27 -2 l-28 6 34 8 c71 19 18 18
-110 -2 -364 -56 -392 -93 -107 -141 68 -11 133 -18 145 -16 12 2 21 1 18 -3
-2 -3 64 -14 148 -24 84 -10 166 -20 182 -23 17 -2 40 -4 52 -5 13 0 21 -4 18
-8 -3 -4 9 -10 26 -14 48 -9 56 -7 29 9 -15 8 -19 14 -10 14 23 1 43 -15 38
-30 -3 -8 5 -22 16 -31 l21 -18 -28 -25 c-19 -17 -23 -25 -13 -25 9 0 16 5 16
10 0 21 20 9 26 -15 4 -16 13 -25 25 -25 12 0 19 -7 19 -20 0 -13 -7 -20 -20
-20 -13 0 -20 7 -20 20 0 15 -7 20 -25 20 -13 0 -30 6 -37 13 -9 11 -20 11
-45 4 -18 -6 -33 -14 -33 -18 0 -5 -8 -6 -17 -3 -15 5 -15 3 1 -10 22 -18 14
-21 -14 -6 -12 7 -26 7 -42 0 -22 -10 -22 -10 4 -5 15 3 30 1 33 -5 4 -6 -12
-8 -42 -5 -33 3 -66 -2 -103 -16 l-55 -20 50 6 c46 6 49 5 30 -9 l-20 -15 20
-2 c11 -1 -2 -5 -30 -9 -27 -4 -58 -11 -67 -15 -10 -4 -18 -3 -18 3 0 5 12 13
27 17 24 6 25 8 11 16 -21 12 -70 1 -61 -14 4 -6 0 -8 -10 -4 -20 7 -105 -33
-131 -62 -40 -44 6 -72 155 -98 145 -25 866 -25 1132 0 98 9 186 17 195 18 11
1 8 4 -8 10 -18 6 -10 7 28 3 30 -3 52 -1 52 5 0 5 -8 12 -17 14 -10 2 -7 2 7
-1 42 -8 110 -3 149 10 20 7 40 11 44 10 5 -1 6 2 2 8 -4 7 3 9 22 5 l28 -5
-27 11 c-16 6 -28 15 -28 20 0 5 -10 9 -22 10 -20 0 -20 2 6 11 18 7 31 7 35
1 3 -6 19 -13 34 -17 15 -4 25 -11 22 -16 -8 -13 51 18 65 35 13 16 4 39 -12
29 -7 -4 -8 -2 -4 5 8 12 -81 58 -91 47 -3 -3 13 -14 36 -23 l42 -18 -32 -19
c-18 -10 -29 -14 -25 -7 5 7 -2 11 -21 11 l-28 1 25 15 25 15 -28 -6 c-23 -5
-27 -2 -25 12 2 10 7 21 12 24 4 4 -20 11 -53 17 -60 11 -96 8 -86 -7 5 -9
-89 4 -105 14 -6 4 -9 1 -8 -7 2 -7 -7 -14 -19 -16 -13 -2 -23 1 -23 7 0 6 4
11 10 11 5 0 12 11 16 25 7 28 29 32 58 10 20 -15 20 -15 0 -15 -16 0 -17 -2
-4 -10 23 -15 36 -12 37 8 1 11 -12 23 -38 34 -44 19 -50 39 -17 62 25 18 17
21 -13 6 -15 -8 -19 -7 -19 4 0 10 10 13 38 11 20 -1 62 4 92 11 90 21 189 35
285 40 119 5 163 13 144 25 -10 6 -10 9 -1 9 6 0 12 4 12 9 0 5 -73 13 -162
17 -187 10 -184 10 -260 1 -54 -7 -58 -6 -58 13 0 18 7 20 54 20 56 0 84 15
44 23 -13 2 -4 5 19 6 32 1 42 -3 45 -16 3 -18 -5 -17 207 -26 82 -4 106 -8
113 -21 5 -9 20 -16 34 -16 16 0 23 -4 18 -11 -10 -16 52 -4 102 20 90 44 92
93 4 116 -3 1 -18 5 -34 10 -22 6 -31 4 -38 -9 -6 -10 -22 -16 -48 -16 -21 0
-40 -5 -42 -12 -5 -15 -470 10 -480 26 -4 6 -25 9 -47 7 -44 -3 -56 13 -18 23
39 10 67 7 67 -9 0 -12 16 -15 83 -16 45 -1 99 -2 120 -3 25 -2 37 2 37 11 0
10 21 13 82 13 45 0 78 -3 74 -7 -8 -8 -13 -9 -60 -11 -16 -1 -26 -5 -23 -9 4
-3 62 0 129 8 l123 14 -70 6 c-38 4 -144 7 -235 8 -210 2 -332 14 -373 39 -28
16 -32 24 -32 60 -1 29 3 41 11 38 7 -3 34 2 61 11 65 21 59 20 478 34 204 6
378 12 387 12 9 1 14 5 11 10 -3 5 11 7 33 3 22 -3 55 -2 74 3 27 7 29 9 11
10 -21 1 -22 3 -10 18 12 14 12 16 0 8 -10 -5 -12 -4 -7 3 8 13 66 16 66 4 0
-4 -5 -13 -12 -20 -9 -9 -7 -12 12 -12 21 0 22 2 10 11 -12 9 -10 10 9 6 30
-7 71 8 71 27 0 15 -76 50 -91 41 -5 -4 -9 -1 -9 4 0 17 -40 13 -46 -4 -4 -8
-12 -15 -20 -15 -21 0 -17 30 4 31 9 1 -8 7 -38 14 -37 10 -59 11 -70 4 -13
-9 -13 -10 2 -5 20 6 78 -12 78 -24 0 -8 -34 -20 -57 -20 -7 0 -13 6 -13 14 0
9 -9 12 -27 9 -22 -4 -25 -2 -13 6 16 12 -7 15 -82 11 -22 -1 -38 3 -38 9 0 6
6 11 13 11 8 0 9 3 1 8 -6 4 -12 26 -12 49 -2 36 1 41 16 36 16 -7 16 -6 0 11
-10 9 -18 20 -18 24 0 4 35 7 78 8 42 0 60 -1 40 -3 -21 -2 -38 -9 -38 -14 0
-6 8 -8 18 -5 9 3 38 8 65 12 26 3 47 11 47 16 0 5 12 7 28 3 29 -6 162 18
191 35 10 6 -760 8 -2099 7 l-2115 -2 1945 -5z m-1680 -60 c0 -6 22 -8 58 -5
l57 4 -45 -10 c-52 -11 -198 -1 -165 12 29 11 95 11 95 -1z m312 1 c-17 -10 5
-20 46 -22 18 -1 12 -4 -18 -10 -25 -5 -49 -7 -55 -5 -5 3 1 5 15 6 l25 2 -25
8 c-14 4 -43 9 -65 10 l-40 3 35 7 c51 11 98 12 82 1z m328 -8 c0 -10 21 -13
80 -13 72 0 80 -2 80 -19 0 -24 -51 -35 -100 -21 -19 5 -51 8 -70 5 l-35 -5
30 10 c17 6 46 8 65 5 23 -4 30 -2 20 4 -21 12 -168 31 -205 25 -16 -2 -24 -1
-16 2 11 5 11 8 0 15 -9 6 17 9 69 7 60 -1 82 -5 82 -15z m283 10 c-24 -2 -62
-2 -85 0 -24 2 -5 4 42 4 47 0 66 -2 43 -4z m-176 -9 c-3 -3 -12 -4 -19 -1 -8
3 -5 6 6 6 11 1 17 -2 13 -5z m-597 -14 c-14 -4 -36 -8 -50 -8 l-25 0 25 8
c14 4 36 8 50 8 l25 0 -25 -8z m103 -7 c-13 -2 -33 -2 -45 0 -13 2 -3 4 22 4
25 0 35 -2 23 -4z m322 -2 c17 -7 16 -9 -13 -16 -18 -4 -36 -4 -39 -1 -4 3 5
6 18 7 l24 1 -25 8 c-20 6 -21 8 -5 8 11 0 29 -3 40 -7z m-85 -11 c-18 -12
-60 -13 -60 -2 0 4 17 9 38 10 27 2 33 0 22 -8z m550 -20 c0 -5 -18 -10 -40
-10 -22 0 -40 5 -40 10 0 6 18 10 40 10 22 0 40 -4 40 -10z m-160 -10 c0 -5
-7 -10 -15 -10 -8 0 -15 5 -15 10 0 6 7 10 15 10 8 0 15 -4 15 -10z m200 -22
c0 -14 -16 -15 -65 -2 l-50 12 58 -1 c31 -1 57 -5 57 -9z m33 -8 c-3 -11 -9
-20 -14 -20 -11 0 -11 3 -3 24 9 23 23 20 17 -4z m2434 -56 c-3 -3 -12 -4 -19
-1 -8 3 -5 6 6 6 11 1 17 -2 13 -5z m53 -35 c65 -14 56 -23 -20 -24 -51 0 -60
3 -60 18 0 20 11 21 80 6z m325 -11 c7 -7 2 -8 -15 -2 -14 4 -35 8 -47 9 -13
0 -23 4 -23 9 0 11 72 -2 85 -16z m-3002 1 c-18 -5 -35 -14 -38 -19 -3 -6 -11
-10 -17 -10 -7 0 -7 5 1 14 9 11 4 13 -31 11 -39 -2 -40 -2 -8 4 19 3 55 7 80
7 43 1 43 1 13 -7z m66 -6 c7 -14 21 -17 70 -15 37 2 61 -2 61 -8 0 -5 -8 -10
-17 -11 -10 -1 -56 -4 -103 -7 -147 -9 -169 -8 -187 11 -15 14 -15 17 -2 17 8
0 24 -7 35 -15 23 -18 45 -19 42 -3 -2 7 14 17 35 22 20 5 37 13 37 18 0 14
19 9 29 -9z m2911 -15 c0 -6 -7 -7 -16 -4 -9 3 -18 6 -20 6 -3 0 -3 4 1 10 7
11 35 2 35 -12z m-2436 -27 c-9 -9 -213 -20 -259 -14 l-50 7 40 6 c47 6 275 7
269 1z m1420 -2 c-7 -12 -4 -12 240 8 45 3 77 2 73 -3 -2 -5 43 -10 102 -12
58 -2 115 -6 125 -9 14 -4 18 -1 13 10 -5 13 -1 14 25 6 45 -13 44 -16 -9 -22
-57 -6 -618 5 -633 13 -3 1 9 6 25 10 44 11 47 11 39 -1z m103 5 c-3 -3 -12
-4 -19 -1 -8 3 -5 6 6 6 11 1 17 -2 13 -5z m777 -3 c3 -4 -6 -6 -19 -3 -14 2
-25 6 -25 8 0 8 39 4 44 -5z m-2624 -22 c60 -7 58 -7 -15 -3 -44 3 -102 6
-130 6 -47 0 -48 1 -15 8 19 4 49 5 65 2 17 -3 59 -9 95 -13z m2475 12 c13 -5
0 -8 -40 -9 -44 0 -53 2 -35 8 32 10 50 10 75 1z m-1870 -11 c4 -6 -21 -10
-67 -10 -44 0 -68 -4 -60 -9 10 -6 8 -10 -10 -14 -35 -10 -68 -8 -68 3 0 9 29
15 53 11 4 0 7 6 7 14 0 12 14 15 69 15 39 0 73 -4 76 -10z m-306 -4 c-2 -2
-35 -6 -74 -9 -45 -3 -58 -3 -35 2 37 9 116 14 109 7z m1561 -10 c8 -2 -20 -4
-62 -5 -52 -1 -94 -8 -129 -21 -54 -22 -65 -21 -56 5 5 10 19 14 47 13 22 -1
45 3 50 8 9 9 109 8 150 0z m-1480 -16 c0 -5 -2 -10 -4 -10 -3 0 -8 5 -11 10
-3 6 -1 10 4 10 6 0 11 -4 11 -10z m1140 -60 c0 -22 -4 -40 -10 -40 -5 0 -10
18 -10 40 0 22 5 40 10 40 6 0 10 -18 10 -40z m62 -10 c-4 -47 -2 -50 30 -70
18 -11 42 -20 52 -20 26 0 18 -6 -19 -14 -23 -5 -26 -4 -15 4 12 8 8 10 -15 8
-16 -2 -33 -7 -37 -13 -12 -16 -16 -3 -23 78 -7 72 -6 77 12 77 17 0 19 -6 15
-50z m-967 10 c-3 -5 -12 -10 -18 -10 -7 0 -6 4 3 10 19 12 23 12 15 0z m-170
-111 c-4 -6 -1 -9 6 -8 8 1 22 -1 32 -6 14 -6 16 -14 11 -41 l-6 -34 108 0
c74 0 104 -3 94 -10 -8 -5 -27 -10 -42 -10 -16 0 -28 -4 -28 -10 0 -15 -56
-12 -70 5 -7 9 -35 15 -73 17 -59 3 -82 19 -37 26 11 2 20 10 20 18 0 19 -54
19 -70 -1 -7 -9 -29 -15 -51 -15 -28 0 -39 4 -39 15 0 11 12 15 45 15 33 0 45
4 45 15 0 9 9 15 23 15 18 0 19 2 7 10 -12 8 -10 10 8 10 14 0 21 -4 17 -11z
m-268 -16 c-10 -10 13 -33 34 -33 10 0 21 -4 24 -10 4 -6 -13 -10 -44 -10 -43
0 -51 3 -51 18 0 15 -7 18 -30 17 -38 -2 -40 12 -2 18 47 7 76 7 69 0z m-117
-44 c0 -5 -6 -9 -12 -9 -7 0 -31 -9 -53 -20 -25 -12 -31 -18 -15 -14 20 4 22
3 9 -5 -11 -7 -28 -7 -52 0 -44 12 -49 21 -7 13 18 -4 30 -2 30 4 0 5 16 13
35 16 19 4 37 11 40 16 10 16 -38 11 -59 -5 -11 -8 -31 -15 -45 -14 l-26 1 25
8 c14 4 19 8 11 9 -27 2 -3 12 46 20 46 7 73 0 73 -20z m1570 10 c0 -5 -4 -9
-9 -9 -5 0 -16 -3 -25 -6 -10 -4 -16 -1 -16 9 0 8 6 17 13 20 16 5 37 -3 37
-14z m733 4 c-7 -2 -21 -2 -30 0 -10 3 -4 5 12 5 17 0 24 -2 18 -5z m57 -18
c6 -8 10 -22 7 -32 -4 -14 -5 -13 -6 5 0 12 -5 22 -10 22 -4 0 -7 -11 -6 -25
4 -32 -11 -43 -64 -42 l-45 0 37 16 c20 9 37 19 37 23 0 11 -27 10 -34 0 -7
-12 -116 -13 -116 -2 0 6 14 10 30 10 17 0 30 4 30 9 0 5 10 7 23 4 18 -4 19
-3 7 7 -12 9 -9 10 15 6 17 -3 37 -2 45 4 21 14 36 12 50 -5z m-2525 -15 c-3
-5 -11 -10 -16 -10 -6 0 -7 5 -4 10 3 6 11 10 16 10 6 0 7 -4 4 -10z m245 0
c0 -5 10 -11 23 -13 13 -3 8 -4 -13 -4 -19 0 -55 -5 -80 -11 -43 -11 -41 -11
25 -6 39 3 84 7 100 11 17 3 27 2 24 -1 -3 -4 -26 -10 -50 -15 l-44 -9 49 -1
c27 -1 47 -4 43 -7 -3 -4 -49 -3 -102 1 -81 6 -95 9 -93 23 2 10 11 22 21 27
21 13 97 17 97 5z m1600 0 c0 -5 -14 -10 -31 -10 -17 0 -28 4 -24 10 3 6 17
10 31 10 13 0 24 -4 24 -10z m-1358 -60 c26 -5 67 -7 91 -4 38 5 47 3 57 -12
10 -17 22 -19 92 -15 77 3 97 -3 98 -31 0 -7 -97 -3 -170 7 -19 2 -66 7 -103
11 -44 4 -64 10 -55 15 15 10 18 9 -70 14 -74 5 -98 16 -52 25 19 4 42 6 50 4
8 -2 36 -8 62 -14z m1958 -14 c0 -2 -9 -6 -20 -9 -11 -3 -20 -1 -20 4 0 5 9 9
20 9 11 0 20 -2 20 -4z m-492 -33 c-12 -15 -76 -17 -98 -3 -11 7 -2 9 30 5 31
-4 39 -3 25 4 -16 7 -13 8 17 8 29 -1 35 -4 26 -14z m147 -3 c-11 -3 -45 -4
-75 -1 -55 5 -55 5 -15 10 52 8 118 1 90 -9z m176 7 c-6 -6 -32 -6 -78 1 l-68
10 78 0 c52 0 75 -4 68 -11z m-118 -14 c-7 -2 -19 -2 -25 0 -7 3 -2 5 12 5 14
0 19 -2 13 -5z m-277 -18 c10 -8 14 -15 7 -15 -19 0 -43 11 -43 21 0 13 14 11
36 -6z m163 11 c-2 -2 -33 -6 -69 -9 -42 -4 -58 -3 -45 3 19 8 123 14 114 6z
m-1159 -42 c0 -8 -4 -12 -10 -9 -5 3 -10 1 -10 -6 0 -8 -5 -7 -17 2 -16 13
-17 12 -4 -3 7 -10 11 -27 8 -38 -3 -11 -1 -18 4 -14 5 3 9 14 9 25 0 11 4 17
10 14 5 -3 9 -16 8 -29 -2 -16 -8 -23 -23 -22 -15 1 -20 8 -20 30 -1 16 -6 31
-13 34 -9 3 -8 7 1 17 17 20 57 19 57 -1z m843 -74 c-13 -10 -23 -25 -23 -34
0 -9 -4 -16 -10 -16 -18 0 -11 39 12 65 16 18 25 22 32 14 8 -7 4 -16 -11 -29z
m-944 -57 c22 -18 22 -18 -16 -17 -56 2 -60 3 -39 19 25 19 29 19 55 -2z
m1178 -29 c-3 -3 -12 -4 -19 -1 -8 3 -5 6 6 6 11 1 17 -2 13 -5z m-1500 -50
c-3 -3 -12 -4 -19 -1 -8 3 -5 6 6 6 11 1 17 -2 13 -5z m1671 -28 c14 5 13 2
-2 -10 -23 -19 -32 -20 -41 -6 -3 6 1 7 10 4 10 -4 14 -1 12 7 -2 8 -2 11 0 7
2 -4 12 -5 21 -2z m-1725 -3 c-7 -2 -21 -2 -30 0 -10 3 -4 5 12 5 17 0 24 -2
18 -5z m114 1 c-3 -3 -12 -4 -19 -1 -8 3 -5 6 6 6 11 1 17 -2 13 -5z m-201
-66 c-24 -31 -25 -31 -46 -18 -13 8 -13 11 -1 22 10 10 12 10 7 1 -9 -16 4
-17 24 -2 11 8 12 12 3 15 -10 4 -10 8 -1 18 9 9 15 10 24 2 9 -8 6 -18 -10
-38z m84 41 c0 -8 11 -9 32 -5 44 9 128 -4 128 -19 0 -9 -22 -13 -77 -13 -54
0 -79 -4 -81 -12 -3 -7 -10 0 -17 16 -7 16 -10 32 -8 37 6 11 23 8 23 -4z
m1544 -18 c3 -4 18 -6 33 -4 24 4 22 2 -12 -16 -47 -25 -51 -26 -34 -5 10 13
10 17 -2 25 -9 5 -10 9 -2 9 6 0 14 -4 17 -9z m-1539 -50 c28 -7 26 -8 -22
-15 -52 -8 -73 -3 -73 15 0 10 50 10 95 0z m518 2 c-24 -2 -62 -2 -85 0 -24 2
-5 4 42 4 47 0 66 -2 43 -4z m752 -2 c-2 -5 -37 -17 -76 -26 -53 -13 -90 -16
-146 -11 -57 5 -73 4 -67 -5 5 -9 0 -10 -17 -6 -13 4 -33 7 -43 7 -39 0 -9 9
70 19 52 8 90 8 106 2 14 -5 31 -6 38 -1 10 6 7 10 -11 13 -13 2 -1 3 26 0 28
-2 45 0 38 4 -6 5 11 9 38 10 27 1 47 -2 44 -6z m84 5 c-11 -9 -69 -14 -69 -6
0 6 17 10 37 10 20 0 34 -2 32 -4z m-1101 -21 c34 -5 62 -12 62 -16 0 -12 -21
-11 -73 2 -31 9 -56 9 -92 1 l-50 -11 46 5 c25 2 56 0 70 -5 17 -7 -3 -9 -76
-7 -55 2 -111 9 -125 15 -22 10 -20 11 17 6 35 -4 41 -3 37 10 -5 13 4 15 57
11 35 -2 92 -7 127 -11z m552 5 c-8 -5 -33 -9 -55 -8 l-40 1 45 7 c25 4 50 8
55 8 6 1 3 -3 -5 -8z m145 0 c-3 -5 -19 -10 -34 -10 -15 0 -31 -4 -37 -10 -15
-15 -183 -28 -384 -28 l-185 0 95 14 c52 7 122 11 155 8 111 -11 155 -11 155
-3 0 5 24 9 53 10 28 0 79 6 112 14 76 17 77 17 70 5z"/>
<path d="M5240 3090 c-13 -9 -13 -10 0 -10 8 0 22 5 30 10 13 9 13 10 0 10 -8
0 -22 -5 -30 -10z"/>
<path d="M5568 3063 c6 -2 18 -2 25 0 6 3 1 5 -13 5 -14 0 -19 -2 -12 -5z"/>
<path d="M7418 3063 c18 -2 45 -2 60 0 15 2 0 4 -33 4 -33 0 -45 -2 -27 -4z"/>
<path d="M7563 3053 c9 -2 23 -2 30 0 6 3 -1 5 -18 5 -16 0 -22 -2 -12 -5z"/>
<path d="M7768 2753 c7 -3 16 -2 19 1 4 3 -2 6 -13 5 -11 0 -14 -3 -6 -6z"/>
<path d="M7825 2730 c-16 -7 -17 -9 -3 -9 9 -1 20 4 23 9 7 11 7 11 -20 0z"/>
<path d="M5508 2753 c6 -2 18 -2 25 0 6 3 1 5 -13 5 -14 0 -19 -2 -12 -5z"/>
<path d="M5958 2673 c7 -3 16 -2 19 1 4 3 -2 6 -13 5 -11 0 -14 -3 -6 -6z"/>
<path d="M6038 2663 c6 -2 18 -2 25 0 6 3 1 5 -13 5 -14 0 -19 -2 -12 -5z"/>
<path d="M6088 2463 c7 -3 16 -2 19 1 4 3 -2 6 -13 5 -11 0 -14 -3 -6 -6z"/>
<path d="M5708 2263 c6 -2 18 -2 25 0 6 3 1 5 -13 5 -14 0 -19 -2 -12 -5z"/>
<path d="M6808 2243 c7 -3 16 -2 19 1 4 3 -2 6 -13 5 -11 0 -14 -3 -6 -6z"/>
<path d="M4018 3373 c7 -3 16 -2 19 1 4 3 -2 6 -13 5 -11 0 -14 -3 -6 -6z"/>
<path d="M3990 3359 c0 -5 11 -9 25 -9 14 0 25 2 25 4 0 2 -11 6 -25 8 -14 3
-25 1 -25 -3z"/>
<path d="M4113 3363 c9 -2 25 -2 35 0 9 3 1 5 -18 5 -19 0 -27 -2 -17 -5z"/>
<path d="M7890 3310 c-9 -6 -10 -10 -3 -10 6 0 15 5 18 10 8 12 4 12 -15 0z"/>
<path d="M7850 3232 c0 -11 33 -22 70 -22 20 0 22 -2 10 -10 -12 -8 -9 -10 13
-10 42 0 32 17 -15 28 -24 5 -51 13 -60 17 -10 4 -18 3 -18 -3z"/>
<path d="M7888 3193 c7 -3 16 -2 19 1 4 3 -2 6 -13 5 -11 0 -14 -3 -6 -6z"/>
<path d="M4973 3103 c-33 -6 -28 -19 8 -27 46 -9 69 -7 44 4 -16 7 -12 9 20
10 39 2 39 3 10 10 -34 9 -50 9 -82 3z"/>
<path d="M7205 2480 c-8 -13 5 -13 25 0 13 8 13 10 -2 10 -9 0 -20 -4 -23 -10z"/>
<path d="M7398 2323 c7 -3 16 -2 19 1 4 3 -2 6 -13 5 -11 0 -14 -3 -6 -6z"/>
</g>
</svg>
