<?xml version="1.0" standalone="no"?>
<!DOCTYPE svg PUBLIC "-//W3C//DTD SVG 20010904//EN"
 "http://www.w3.org/TR/2001/REC-SVG-20010904/DTD/svg10.dtd">
<svg version="1.0" xmlns="http://www.w3.org/2000/svg"
 width="512.000000pt" height="512.000000pt" viewBox="0 0 512.000000 512.000000"
 preserveAspectRatio="xMidYMid meet">

<g transform="translate(0.000000,512.000000) scale(0.100000,-0.100000)"
fill="#000000" stroke="none">
<path d="M4663 4299 c-6 -6 -28 -11 -49 -11 -61 1 -279 -47 -388 -85 -256 -89
-446 -197 -691 -392 -212 -168 -365 -339 -561 -621 -134 -193 -183 -274 -244
-403 -46 -96 -70 -124 -70 -81 0 57 -135 77 -192 29 -29 -24 -32 -25 -49 -9
-10 9 -53 77 -95 153 -184 326 -448 661 -672 853 -125 107 -299 238 -397 298
-266 163 -653 280 -849 256 -73 -10 -106 -38 -151 -130 l-36 -72 -1 -174 c0
-172 1 -178 41 -342 22 -91 50 -191 61 -222 16 -42 19 -60 11 -75 -19 -34 -12
-88 20 -168 26 -66 30 -85 24 -133 -4 -36 -1 -71 9 -103 18 -61 90 -157 116
-157 13 0 21 -9 25 -27 26 -124 64 -178 141 -201 63 -19 473 -16 498 3 22 16
93 20 115 6 21 -13 -45 -71 -80 -71 -44 0 -113 -25 -158 -58 -24 -18 -52 -32
-63 -32 -18 0 -66 -45 -174 -162 -28 -31 -71 -96 -98 -149 -49 -98 -51 -106
-58 -299 -1 -48 16 -108 40 -133 15 -17 21 -41 24 -98 4 -57 10 -84 27 -107
11 -17 26 -54 31 -84 12 -64 35 -97 82 -121 20 -10 67 -52 103 -93 73 -81 125
-114 179 -114 29 0 47 -10 100 -59 66 -60 93 -71 170 -71 22 0 77 -7 121 -15
163 -29 277 -15 411 50 110 53 167 121 258 308 120 242 186 428 238 669 13 60
28 106 33 105 16 -6 17 -81 1 -144 -10 -42 -14 -112 -14 -248 1 -189 1 -190
31 -258 30 -67 31 -68 66 -65 30 3 39 9 58 44 56 101 60 164 37 547 -5 77 -3
107 5 107 6 0 11 -15 11 -33 0 -72 56 -250 174 -549 93 -236 129 -300 221
-394 80 -81 145 -116 255 -140 137 -29 418 -2 520 51 15 8 49 33 75 55 32 27
56 40 76 40 62 0 141 61 196 151 23 36 59 59 93 59 28 0 45 32 91 170 32 97
39 131 34 162 -6 35 -3 45 24 78 l31 39 0 161 c0 177 -4 193 -66 263 -19 20
-34 45 -34 56 0 23 -37 71 -55 71 -8 0 -33 25 -56 56 -26 35 -54 61 -78 71
-20 8 -59 33 -87 54 -55 42 -98 59 -152 59 -24 0 -42 9 -65 31 -31 32 -31 32
-9 40 14 5 46 3 85 -6 76 -18 450 -21 512 -4 62 17 120 84 135 155 10 49 20
66 65 110 60 60 77 109 68 205 -4 47 -1 64 22 110 24 45 29 70 33 154 4 85 11
120 50 235 32 96 47 157 50 210 2 41 11 89 20 105 19 38 18 191 -3 280 -16 71
-58 170 -83 198 -9 11 -41 30 -71 43 -63 28 -54 27 -68 13z m-4216 -105 c9
-24 -13 -61 -48 -79 -28 -15 -33 -15 -46 -2 -13 13 -11 20 22 56 39 43 62 51
72 25z m263 -2 c35 -28 17 -41 -55 -40 -65 1 -81 11 -69 43 9 22 96 20 124 -3z
m3818 -9 c4 -28 -30 -38 -95 -29 -59 8 -64 13 -34 37 19 15 36 19 75 17 44 -3
51 -6 54 -25z m201 1 c17 -14 31 -34 31 -44 0 -45 -85 -26 -108 25 -11 23 -10
27 11 35 32 13 32 13 66 -16z m-3691 -208 c51 -48 77 -82 86 -113 15 -48 -31
-22 -115 63 -74 77 -82 88 -64 94 28 10 44 3 93 -44z m-209 4 c25 -16 79 -63
120 -103 66 -68 72 -77 61 -96 -6 -12 -15 -21 -19 -19 -40 17 -302 185 -306
196 -3 8 5 26 17 39 28 30 61 26 127 -17z m3339 22 c6 -19 -142 -165 -164
-160 -33 6 -24 26 49 103 72 75 103 91 115 57z m240 2 c45 -31 30 -48 -133
-149 -92 -58 -161 -95 -170 -91 -9 3 -15 18 -15 34 0 25 15 41 96 106 86 70
160 115 189 116 6 0 21 -7 33 -16z m396 -36 c-20 -21 -54 -24 -54 -5 0 7 7 23
16 35 15 22 17 22 35 6 18 -16 18 -18 3 -36z m-4440 -9 c-8 -13 -27 -11 -50 5
-19 15 -19 15 1 30 18 14 21 14 37 -5 10 -12 15 -25 12 -30z m3581 2 c3 -11
-3 -39 -15 -64 -17 -37 -30 -48 -70 -65 -40 -17 -51 -18 -60 -7 -16 19 9 72
51 112 29 27 47 36 81 42 4 0 9 -8 13 -18z m-2694 -20 c72 -45 90 -120 32
-129 -15 -2 -38 17 -82 65 -33 37 -61 73 -61 80 0 23 64 14 111 -16z m-538
-101 c102 -39 134 -56 184 -96 51 -42 61 -68 36 -96 -25 -28 -86 -19 -188 27
-44 20 -111 43 -150 51 -97 20 -112 46 -61 103 44 49 76 51 179 11z m3855 -3
c29 -27 30 -82 3 -97 -11 -5 -35 -10 -54 -10 -19 0 -68 -16 -110 -35 -41 -19
-107 -43 -146 -52 -66 -16 -73 -16 -87 -1 -26 26 -9 63 49 109 88 71 221 122
287 113 19 -3 45 -15 58 -27z m202 -18 c0 -31 -30 -69 -54 -69 -55 0 -60 38
-11 87 29 29 38 33 50 23 8 -7 15 -25 15 -41z m-4361 15 c28 -35 26 -52 -4
-66 -19 -8 -31 -8 -50 0 -32 15 -41 37 -27 68 16 33 54 32 81 -2z m1073 -116
c58 -38 61 -109 5 -133 -28 -12 -35 -12 -57 2 -40 25 -60 56 -60 95 0 56 54
74 112 36z m2256 -26 c4 -53 -17 -88 -63 -108 -46 -19 -52 -18 -80 11 -30 29
-33 75 -7 98 28 26 84 47 117 44 28 -2 30 -5 33 -45z m-2466 -29 c16 -14 41
-72 62 -140 7 -21 4 -23 -26 -23 -40 0 -111 42 -151 89 -32 38 -32 39 -9 67
37 46 79 48 124 7z m2672 15 c37 -53 3 -116 -85 -158 -59 -28 -89 -30 -89 -6
0 24 43 122 63 144 11 12 28 22 38 22 10 0 21 5 24 10 10 17 33 11 49 -12z
m-3585 -52 c13 -14 20 -29 16 -35 -10 -17 -40 -13 -60 9 -15 16 -15 22 -5 35
17 20 23 19 49 -9z m4435 2 c18 -25 6 -48 -26 -48 -24 0 -33 23 -18 49 14 27
25 26 44 -1z m-4094 -15 c54 -36 90 -77 90 -104 0 -34 -14 -39 -101 -39 -77 0
-117 15 -143 54 -20 32 -20 55 0 84 13 18 25 22 72 22 37 0 66 -6 82 -17z
m3848 5 c24 -24 14 -78 -22 -114 -32 -32 -38 -34 -105 -34 -72 0 -121 14 -121
35 0 18 85 94 123 110 40 18 109 19 125 3z m-4079 -82 c-7 -8 -15 -5 -25 8
-11 16 -11 22 -1 28 17 11 41 -22 26 -36z m4191 14 c0 -11 -4 -20 -10 -20 -5
0 -10 9 -10 20 0 11 5 20 10 20 6 0 10 -9 10 -20z m-2937 -29 c55 -34 227
-216 227 -240 0 -15 -4 -20 -12 -15 -7 5 -43 27 -79 51 -37 23 -118 68 -182
99 -64 31 -118 63 -121 70 -3 7 5 25 16 40 19 24 26 26 70 21 27 -4 64 -15 81
-26z m1817 2 c26 -34 31 -30 -140 -119 -69 -36 -148 -84 -177 -105 -56 -42
-73 -48 -73 -25 0 23 105 146 182 214 70 61 73 62 129 62 51 0 60 -3 79 -27z
m-2421 -7 c49 -26 147 -140 158 -184 8 -30 8 -42 -1 -45 -6 -2 -54 17 -106 42
-52 26 -114 54 -137 63 -91 35 -72 137 25 138 18 0 45 -6 61 -14z m2970 3 c44
-16 54 -38 33 -80 -18 -36 -24 -40 -184 -113 -123 -56 -135 -49 -84 51 38 76
74 114 126 137 42 18 67 20 109 5z m606 -98 c-24 -24 -26 -25 -42 -8 -17 17
-16 19 12 42 27 22 31 23 43 7 10 -14 8 -20 -13 -41z m-4246 27 c12 -19 11
-24 -9 -40 -27 -22 -40 -11 -40 35 0 34 29 37 49 5z m1098 -59 c119 -34 128
-38 310 -154 159 -101 282 -219 375 -360 89 -136 138 -231 138 -271 0 -18 6
-35 13 -38 6 -3 -1 -2 -17 1 -16 3 -61 29 -100 57 -40 28 -141 87 -226 130
-198 101 -291 161 -421 273 -180 156 -249 242 -249 311 0 32 34 82 56 82 7 0
62 -14 121 -31z m2167 0 c45 -53 31 -100 -57 -202 -70 -82 -244 -229 -356
-302 -53 -35 -167 -99 -253 -143 -86 -44 -191 -104 -233 -132 -117 -79 -125
-63 -45 94 79 155 208 329 303 409 123 104 308 218 402 246 22 7 54 19 72 27
17 8 44 14 60 14 15 0 35 5 43 10 24 16 37 12 64 -21z m-3135 -91 c1 -5 -5 -8
-13 -8 -8 0 -20 -2 -28 -5 -7 -3 -19 -1 -27 4 -12 8 -13 14 -3 36 l12 26 30
-23 c16 -13 29 -26 29 -30z m389 16 c97 -32 303 -131 364 -175 135 -98 198
-151 198 -170 0 -21 -8 -23 -65 -9 -98 23 -335 51 -500 59 -152 7 -186 11
-221 29 -50 26 -100 81 -109 120 -7 33 8 97 29 124 42 56 176 65 304 22z
m3444 7 c13 -11 35 -39 48 -63 30 -57 22 -105 -26 -158 -51 -56 -109 -75 -219
-73 -49 1 -153 -7 -230 -17 -77 -10 -189 -24 -250 -30 -60 -7 -120 -18 -132
-26 -28 -18 -33 -18 -33 0 0 45 281 250 399 291 36 13 92 35 123 49 70 33 121
43 219 45 61 1 81 -3 101 -18z m173 -17 c-35 -26 -66 -12 -39 17 13 15 21 16
37 7 20 -10 20 -11 2 -24z m-4153 -41 c18 -16 25 -43 11 -43 -12 0 -43 33 -43
47 0 17 10 17 32 -4z m4272 -2 c16 -17 15 -19 -8 -35 -45 -29 -68 -13 -40 29
20 30 26 31 48 6z m-2734 -11 c0 -5 -5 -10 -11 -10 -5 0 -7 5 -4 10 3 6 8 10
11 10 2 0 4 -4 4 -10z m-1471 -159 c12 -8 12 -12 2 -25 -15 -18 -37 -21 -46
-6 -7 11 11 40 24 40 3 0 12 -4 20 -9z m4135 3 c22 -8 20 -21 -5 -35 -28 -14
-48 3 -29 26 14 17 13 17 34 9z m-3384 -174 c113 -17 238 -40 280 -51 131 -37
636 -260 712 -315 27 -19 53 -34 58 -34 6 0 10 -4 10 -10 0 -16 -104 -17 -125
0 -5 4 -77 11 -160 14 -158 7 -343 28 -460 51 -224 45 -278 50 -535 50 -280 1
-316 7 -355 59 -17 23 -20 41 -18 107 1 50 6 86 15 96 32 39 119 56 319 61 31
1 147 -12 259 -28z m3132 -9 c60 -38 82 -79 76 -143 -4 -36 -13 -57 -33 -78
-53 -56 -66 -58 -375 -63 -235 -4 -292 -7 -322 -21 -21 -9 -62 -16 -93 -16
-30 0 -81 -6 -113 -14 -31 -8 -109 -20 -172 -27 -63 -6 -140 -15 -170 -20 -30
-4 -96 -8 -147 -8 -50 -1 -95 -5 -98 -11 -3 -5 -36 -10 -73 -10 l-67 1 38 32
c43 37 367 194 549 267 170 67 261 89 414 101 71 6 152 16 180 24 30 8 107 14
205 14 l155 1 46 -29z m-3832 -77 c0 -6 -7 -17 -15 -24 -12 -10 -16 -8 -25 15
-6 15 -8 37 -4 48 6 20 7 20 25 -4 10 -13 19 -29 19 -35z m4059 12 c9 -10 8
-16 -4 -26 -13 -11 -19 -11 -32 2 -16 17 -10 38 11 38 8 0 19 -6 25 -14z
m-929 -412 c11 -12 10 -18 -3 -32 -21 -21 -42 -3 -32 27 8 25 18 27 35 5z
m-2205 -8 c18 -13 18 -14 -2 -24 -16 -9 -24 -8 -33 3 -11 14 -6 35 9 35 4 0
16 -6 26 -14z m450 -21 c105 -9 234 -17 288 -18 113 -2 131 -19 30 -28 -38 -3
-84 -11 -103 -17 -46 -16 -276 -52 -366 -59 -79 -5 -119 7 -179 53 -42 31 -48
71 -12 78 67 15 34 16 342 -9z m1604 12 c14 -6 26 -17 28 -24 10 -30 -109
-101 -187 -110 -48 -6 -123 6 -336 53 -61 13 -133 24 -160 24 -27 0 -55 4 -62
9 -22 13 38 21 172 22 66 0 144 5 171 10 43 9 201 22 315 27 19 1 46 -4 59
-11z m-2084 -74 c19 -9 35 -21 35 -25 0 -5 24 -20 53 -32 50 -23 85 -51 75
-61 -2 -2 -47 -9 -99 -15 -52 -6 -119 -16 -149 -23 -31 -7 -79 -11 -110 -8
-51 6 -55 8 -58 34 -6 54 32 88 142 128 65 22 68 22 111 2z m2342 -2 c46 -21
143 -113 143 -136 0 -8 -13 -16 -32 -19 -18 -3 -49 -8 -69 -11 -20 -3 -83 4
-140 15 -57 11 -120 20 -140 20 -42 0 -57 21 -31 42 9 8 40 28 67 45 115 70
134 75 202 44z m-1424 -38 c16 -9 -58 -75 -176 -156 -174 -120 -243 -160 -439
-254 -189 -90 -236 -101 -230 -54 1 13 15 38 31 56 16 18 41 59 56 91 15 33
36 79 47 103 37 78 122 117 316 145 56 8 112 22 124 30 12 9 36 16 53 16 16 0
46 9 65 19 27 15 48 18 90 14 30 -3 59 -8 63 -10z m722 -48 c323 -90 328 -93
365 -172 12 -27 46 -89 76 -140 30 -51 54 -99 54 -107 0 -29 -52 -17 -210 49
-130 55 -184 85 -340 189 -193 130 -291 210 -274 225 26 26 128 12 329 -44z
m-1955 45 c13 -8 10 -15 -16 -41 -28 -28 -54 -33 -54 -10 0 11 40 61 48 61 4
0 14 -5 22 -10z m2910 -14 c31 -34 21 -58 -22 -54 -23 2 -37 11 -48 31 -13 24
-13 29 0 37 25 16 45 11 70 -14z m-3040 -66 c0 -5 -13 -24 -29 -42 l-29 -33
-12 27 c-18 39 -7 58 35 58 19 0 35 -4 35 -10z m3170 -10 c25 -19 25 -19 5
-34 -27 -21 -28 -20 -48 13 -26 43 -2 56 43 21z m-1802 -284 c-74 -307 -92
-360 -196 -591 -101 -224 -133 -268 -197 -263 -37 3 -41 6 -49 41 -9 34 -5 48
44 150 29 61 112 243 185 402 180 397 256 545 265 521 3 -11 -18 -122 -52
-260z m434 67 c47 -98 91 -194 98 -213 7 -19 71 -154 142 -299 71 -146 134
-284 141 -308 15 -59 -4 -97 -52 -101 -70 -7 -151 119 -260 405 -27 73 -57
145 -65 162 -9 16 -16 46 -16 65 0 19 -11 67 -26 106 -14 39 -32 109 -40 157
-9 48 -21 101 -29 119 -14 35 -9 84 9 84 7 0 51 -80 98 -177z m50 120 c33 -32
102 -112 154 -178 101 -128 238 -295 344 -417 61 -70 154 -225 177 -293 13
-38 3 -65 -37 -98 -35 -30 -71 -34 -121 -13 -46 19 -60 37 -106 136 -22 47
-66 128 -97 180 -31 52 -87 154 -123 225 -36 72 -89 166 -116 209 -27 44 -63
109 -79 145 -16 36 -40 80 -54 98 -25 33 -32 63 -13 63 6 0 38 -26 71 -57z
m-532 3 c0 -6 -13 -30 -29 -52 -27 -38 -311 -564 -406 -753 -50 -100 -143
-211 -177 -211 -10 0 -18 2 -18 5 0 4 366 605 529 869 51 81 91 150 89 152 -2
2 -66 -84 -142 -191 -178 -251 -337 -463 -443 -593 -126 -153 -174 -176 -114
-54 54 109 131 218 256 362 64 74 148 179 187 232 42 59 105 129 159 178 83
75 109 88 109 56z m-720 -1 c0 -29 -30 -74 -58 -89 -38 -19 -118 -34 -247 -46
-60 -5 -145 -16 -188 -25 -170 -33 -186 -11 -87 117 36 47 90 56 348 57 203 1
232 -1 232 -14z m2393 4 c69 -19 188 -150 155 -170 -20 -13 -88 -10 -142 6
-27 8 -82 15 -123 15 -46 0 -82 5 -96 14 -14 9 -47 14 -89 13 -52 -1 -76 5
-113 24 -50 26 -82 67 -72 93 6 14 32 16 224 16 123 0 235 -5 256 -11z m-3096
-34 c4 -12 -56 -37 -68 -29 -5 3 -9 14 -9 25 0 17 6 20 37 17 20 -2 38 -8 40
-13z m3398 5 c7 -12 -16 -50 -31 -50 -6 0 -18 8 -27 18 -13 14 -14 21 -5 30
14 14 54 16 63 2z m-1662 -75 c-3 -8 -9 -15 -14 -15 -10 0 -12 24 -3 33 11 11
24 -3 17 -18z m-1843 -117 c0 -34 -10 -40 -40 -25 -31 16 -36 41 -15 74 l18
26 18 -24 c10 -13 19 -36 19 -51z m80 41 c0 -10 -4 -19 -10 -19 -5 0 -10 12
-10 26 0 14 4 23 10 19 6 -3 10 -15 10 -26z m3401 15 c10 -13 10 -17 -2 -25
-32 -20 -61 0 -39 26 16 19 24 19 41 -1z m-2771 -38 c0 -19 -66 -92 -105 -116
-46 -29 -282 -113 -373 -134 -63 -14 -76 -15 -100 -2 -15 8 -34 26 -42 41 -12
23 -12 30 5 61 10 19 32 43 49 53 46 28 163 61 236 67 36 3 107 12 159 20 51
9 99 13 105 11 7 -3 20 1 30 9 20 14 36 10 36 -10z m2159 8 c17 -8 75 -20 129
-25 266 -24 416 -65 428 -116 15 -59 -23 -136 -67 -135 -32 0 -350 107 -418
140 -57 28 -131 103 -131 133 0 23 17 24 59 3z m718 0 c8 -20 -13 -64 -31 -64
-14 0 -30 55 -20 71 9 15 44 10 51 -7z m-1116 -80 c146 -82 160 -92 299 -207
179 -147 203 -171 255 -251 61 -94 70 -118 56 -145 -15 -28 -74 -61 -108 -61
-56 0 -153 107 -314 345 -48 72 -118 156 -201 241 -109 111 -143 154 -124 154
2 0 64 -34 137 -76z m-1317 34 c-24 -41 -97 -132 -149 -188 -69 -73 -139 -167
-238 -315 -81 -122 -161 -195 -214 -195 -27 0 -43 8 -69 34 -47 47 -47 91 3
160 51 70 165 188 242 249 105 84 384 266 409 266 16 1 21 -3 16 -11z m-1130
-111 c13 -20 -7 -62 -36 -81 -14 -9 -23 -6 -44 16 -32 32 -27 53 18 73 38 16
48 15 62 -8z m3564 -22 c2 -16 -4 -39 -11 -49 -14 -19 -16 -19 -41 -3 -20 13
-26 26 -26 53 0 35 1 35 38 32 33 -3 37 -6 40 -33z m-748 -23 c0 -14 -11 -21
-26 -15 -21 8 -17 23 6 23 11 0 20 -4 20 -8z m-2160 -20 c0 -25 -338 -359
-372 -367 -43 -11 -118 40 -118 80 0 25 54 105 90 133 14 11 59 34 100 52 41
18 102 46 135 63 50 25 127 52 158 56 4 1 7 -7 7 -17z m2287 -23 c209 -72 359
-166 351 -220 -3 -26 -6 -24 -232 100 -211 116 -263 151 -223 151 9 0 55 -14
104 -31z m71 -136 c136 -106 220 -189 204 -205 -18 -18 -96 26 -137 78 -21 27
-79 91 -129 143 -50 51 -83 90 -74 85 9 -5 70 -51 136 -101z m-2999 56 c15
-44 14 -49 -9 -49 -25 0 -34 21 -26 55 9 34 22 31 35 -6z m3485 -6 c9 -22 -20
-51 -35 -36 -8 8 -8 17 0 32 14 25 27 27 35 4z m-113 -23 c21 0 7 -27 -20 -37
-33 -12 -41 -8 -41 18 0 19 18 30 38 23 8 -2 18 -4 23 -4z m-3261 -15 c10 -12
10 -18 0 -30 -17 -20 -27 -19 -35 5 -11 36 12 53 35 25z m-95 -81 c26 -34 26
-36 9 -49 -42 -32 -69 -11 -59 44 4 22 10 41 15 41 4 0 20 -16 35 -36z m3473
-21 c4 -35 -18 -49 -49 -33 -24 13 -24 18 3 47 28 29 42 25 46 -14z m-3384
-126 c11 -8 17 -23 14 -38 -2 -20 -8 -24 -38 -24 -29 0 -36 4 -38 23 -7 49 23
68 62 39z m3290 7 c20 -8 21 -38 0 -58 -22 -23 -43 -20 -56 9 -18 39 12 66 56
49z m-3053 -100 c21 -25 -19 -45 -51 -24 -13 8 -12 11 5 24 25 19 30 19 46 0z
m2820 0 c21 -25 -19 -45 -51 -24 -13 8 -12 11 5 24 25 19 30 19 46 0z m-2927
-53 c10 -11 16 -31 14 -48 -3 -25 -7 -28 -38 -28 -32 0 -35 3 -38 33 -6 56 29
80 62 43z m3036 -6 c23 -25 23 -25 4 -40 -45 -36 -55 -38 -77 -16 l-21 21 29
30 c16 16 32 30 35 30 4 0 17 -11 30 -25z m-2767 -65 c-14 -14 -56 -16 -60 -3
-2 6 6 13 19 15 29 5 52 -2 41 -12z m2507 0 c0 -4 -12 -10 -27 -13 -34 -6 -52
15 -20 24 24 6 47 1 47 -11z m-2630 -62 c-11 -4 -32 -3 -46 3 -26 9 -26 10 -9
29 17 19 18 19 46 -3 28 -20 29 -22 9 -29z m274 18 c25 -20 13 -46 -22 -46
-45 0 -69 39 -40 68 11 11 25 7 62 -22z m2457 -5 c-13 -24 -31 -27 -49 -9 -9
9 -6 16 15 30 32 20 50 10 34 -21z m-253 -9 c10 -14 10 -18 -5 -24 -51 -19
-90 4 -63 37 15 18 49 11 68 -13z m-1880 -18 c-24 -24 -44 -7 -22 17 12 13 21
16 28 9 7 -7 5 -15 -6 -26z m1520 20 c30 -21 28 -34 -7 -34 -35 0 -56 21 -39
38 15 15 19 15 46 -4z m-1687 -14 c20 -11 18 -22 -14 -64 -14 -19 -16 -19 -41
-3 -31 21 -32 31 -6 57 23 23 33 24 61 10z m1870 -11 c29 -29 21 -53 -19 -57
-38 -4 -51 16 -34 54 14 29 26 30 53 3z m261 -26 c22 -20 23 -36 2 -68 -19
-29 -40 -32 -52 -7 -10 18 -8 33 10 70 14 26 16 27 40 5z m-1834 -15 c18 -18
15 -25 -15 -32 -16 -4 -36 -9 -45 -12 -28 -8 -23 35 5 46 31 12 41 12 55 -2z
m-554 -24 l39 -27 -33 -13 c-55 -24 -84 -1 -64 50 8 21 13 20 58 -10z m1855
12 c9 -10 8 -16 -4 -26 -14 -11 -20 -9 -43 13 l-27 27 32 0 c17 0 36 -6 42
-14z m-1506 -17 c24 -13 37 -28 37 -45 0 -15 -78 -57 -95 -50 -21 8 -18 49 6
80 24 30 23 30 52 15z m1695 -5 c27 -19 28 -45 3 -68 -16 -14 -23 -15 -47 -4
-35 15 -44 26 -37 47 16 43 43 52 81 25z m-1878 -44 c0 -27 -19 -35 -35 -14
-9 13 -10 23 -3 31 13 16 38 5 38 -17z m2058 18 c19 -19 14 -27 -23 -34 -46
-8 -56 2 -25 26 30 23 32 24 48 8z"/>
<path d="M1990 3993 c0 -3 17 -26 38 -51 20 -24 46 -60 57 -80 23 -41 45 -53
45 -24 0 12 -11 29 -25 40 -14 11 -25 27 -25 35 0 21 -46 74 -70 80 -11 3 -20
3 -20 0z"/>
<path d="M3057 3955 c-26 -26 -47 -55 -47 -66 0 -18 10 -12 58 32 31 28 57 57
57 62 0 24 -23 14 -68 -28z"/>
<path d="M2980 3834 c0 -14 4 -23 10 -19 6 3 10 15 10 26 0 10 -4 19 -10 19
-5 0 -10 -12 -10 -26z"/>
<path d="M2140 3791 c0 -11 5 -23 10 -26 6 -3 10 -15 10 -26 0 -11 7 -22 15
-25 8 -4 15 -17 15 -30 0 -13 5 -24 10 -24 6 0 10 9 10 19 0 11 -4 23 -10 26
-5 3 -10 15 -10 26 0 11 -7 22 -15 25 -8 4 -15 14 -15 24 0 11 -4 22 -10 25
-5 3 -10 -3 -10 -14z"/>
<path d="M2933 3759 c-31 -45 -53 -100 -53 -128 1 -24 26 12 62 86 37 78 32
102 -9 42z"/>
<path d="M2220 3621 c0 -17 18 -80 40 -139 22 -59 44 -132 51 -162 6 -30 14
-62 19 -70 4 -9 11 -30 14 -48 4 -17 12 -35 18 -38 22 -14 -2 121 -46 251 -23
71 -48 149 -55 171 -6 23 -18 47 -26 54 -13 11 -15 8 -15 -19z"/>
<path d="M2847 3570 c-10 -14 -25 -50 -33 -80 -8 -30 -22 -72 -30 -93 -18 -47
-19 -110 -1 -105 6 3 15 22 18 44 3 21 20 77 38 123 17 46 31 95 29 110 l-3
26 -18 -25z"/>
<path d="M2753 3269 c-7 -7 -13 -29 -13 -48 0 -32 1 -34 16 -20 9 10 14 29 12
48 -2 26 -5 30 -15 20z"/>
<path d="M2722 3167 c-12 -14 -5 -57 9 -57 5 0 9 16 9 35 0 38 -2 41 -18 22z"/>
<path d="M2374 3126 c-6 -26 1 -46 17 -46 12 0 12 57 -1 65 -5 3 -12 -5 -16
-19z"/>
<path d="M2697 3094 c-11 -11 -8 -64 3 -64 6 0 13 6 16 13 6 17 -10 60 -19 51z"/>
<path d="M2400 3041 c0 -17 4 -32 9 -35 11 -7 22 31 14 50 -9 24 -23 15 -23
-15z"/>
<path d="M2662 2993 c-12 -17 -22 -41 -22 -52 0 -19 3 -20 20 -11 21 11 34 47
28 77 -3 15 -7 12 -26 -14z"/>
<path d="M2430 2970 c0 -11 5 -20 10 -20 6 0 10 9 10 20 0 11 -4 20 -10 20 -5
0 -10 -9 -10 -20z"/>
<path d="M2450 2916 c0 -14 -7 -44 -16 -66 -11 -27 -13 -45 -7 -51 5 -5 63 -8
134 -7 l124 3 3 25 c2 17 -8 37 -30 62 -32 35 -36 36 -99 36 -36 0 -75 5 -87
11 -20 11 -22 9 -22 -13z"/>
</g>
</svg>
